<mxfile host="app.diagrams.net" modified="2024-06-26T12:08:02.081Z" agent="Mozilla/5.0 (Windows NT 10.0; Win64; x64) AppleWebKit/537.36 (KHTML, like Gecko) Chrome/126.0.0.0 Safari/537.36" etag="ee0P2nC0-6AVHdaAdxRW" version="24.6.3" type="device" pages="8">
  <diagram name="top" id="qilNLKBTORXNP-3IX72h">
    <mxGraphModel dx="1400" dy="743" grid="1" gridSize="10" guides="1" tooltips="1" connect="1" arrows="1" fold="1" page="1" pageScale="1" pageWidth="1169" pageHeight="1654" math="0" shadow="0">
      <root>
        <mxCell id="0" />
        <mxCell id="1" parent="0" />
        <mxCell id="vrrsMKaeA1Si1GtD4l2M-10" style="edgeStyle=orthogonalEdgeStyle;rounded=0;orthogonalLoop=1;jettySize=auto;html=1;exitX=0.5;exitY=1;exitDx=0;exitDy=0;entryX=0.5;entryY=0;entryDx=0;entryDy=0;" parent="1" source="vrrsMKaeA1Si1GtD4l2M-1" target="vrrsMKaeA1Si1GtD4l2M-2" edge="1">
          <mxGeometry relative="1" as="geometry" />
        </mxCell>
        <mxCell id="vrrsMKaeA1Si1GtD4l2M-11" style="edgeStyle=orthogonalEdgeStyle;rounded=0;orthogonalLoop=1;jettySize=auto;html=1;exitX=0.5;exitY=1;exitDx=0;exitDy=0;entryX=0.5;entryY=0;entryDx=0;entryDy=0;" parent="1" source="vrrsMKaeA1Si1GtD4l2M-1" target="vrrsMKaeA1Si1GtD4l2M-3" edge="1">
          <mxGeometry relative="1" as="geometry" />
        </mxCell>
        <mxCell id="vrrsMKaeA1Si1GtD4l2M-12" style="edgeStyle=orthogonalEdgeStyle;rounded=0;orthogonalLoop=1;jettySize=auto;html=1;exitX=0.5;exitY=1;exitDx=0;exitDy=0;" parent="1" source="vrrsMKaeA1Si1GtD4l2M-1" target="vrrsMKaeA1Si1GtD4l2M-4" edge="1">
          <mxGeometry relative="1" as="geometry" />
        </mxCell>
        <mxCell id="vrrsMKaeA1Si1GtD4l2M-13" style="edgeStyle=orthogonalEdgeStyle;rounded=0;orthogonalLoop=1;jettySize=auto;html=1;exitX=0.5;exitY=1;exitDx=0;exitDy=0;entryX=0.5;entryY=0;entryDx=0;entryDy=0;" parent="1" source="vrrsMKaeA1Si1GtD4l2M-1" target="vrrsMKaeA1Si1GtD4l2M-5" edge="1">
          <mxGeometry relative="1" as="geometry" />
        </mxCell>
        <mxCell id="vrrsMKaeA1Si1GtD4l2M-1" value="&lt;font style=&quot;vertical-align: inherit;&quot;&gt;&lt;font style=&quot;vertical-align: inherit;&quot;&gt;top&lt;/font&gt;&lt;/font&gt;" style="whiteSpace=wrap;html=1;" parent="1" vertex="1">
          <mxGeometry x="490" y="10" width="120" height="60" as="geometry" />
        </mxCell>
        <mxCell id="vrrsMKaeA1Si1GtD4l2M-29" style="edgeStyle=orthogonalEdgeStyle;rounded=0;orthogonalLoop=1;jettySize=auto;html=1;exitX=0.5;exitY=1;exitDx=0;exitDy=0;" parent="1" source="vrrsMKaeA1Si1GtD4l2M-2" target="vrrsMKaeA1Si1GtD4l2M-27" edge="1">
          <mxGeometry relative="1" as="geometry" />
        </mxCell>
        <mxCell id="vrrsMKaeA1Si1GtD4l2M-43" style="edgeStyle=orthogonalEdgeStyle;rounded=0;orthogonalLoop=1;jettySize=auto;html=1;exitX=0.5;exitY=1;exitDx=0;exitDy=0;entryX=0.5;entryY=0;entryDx=0;entryDy=0;" parent="1" source="vrrsMKaeA1Si1GtD4l2M-2" target="vrrsMKaeA1Si1GtD4l2M-16" edge="1">
          <mxGeometry relative="1" as="geometry" />
        </mxCell>
        <mxCell id="vrrsMKaeA1Si1GtD4l2M-2" value="&lt;font style=&quot;vertical-align: inherit;&quot;&gt;&lt;font style=&quot;vertical-align: inherit;&quot;&gt;views&lt;/font&gt;&lt;/font&gt;" style="whiteSpace=wrap;html=1;" parent="1" vertex="1">
          <mxGeometry x="170" y="160" width="120" height="60" as="geometry" />
        </mxCell>
        <mxCell id="vrrsMKaeA1Si1GtD4l2M-36" style="edgeStyle=orthogonalEdgeStyle;rounded=0;orthogonalLoop=1;jettySize=auto;html=1;exitX=0.5;exitY=1;exitDx=0;exitDy=0;entryX=0.5;entryY=0;entryDx=0;entryDy=0;" parent="1" source="vrrsMKaeA1Si1GtD4l2M-3" target="vrrsMKaeA1Si1GtD4l2M-27" edge="1">
          <mxGeometry relative="1" as="geometry" />
        </mxCell>
        <mxCell id="vrrsMKaeA1Si1GtD4l2M-3" value="&lt;font style=&quot;vertical-align: inherit;&quot;&gt;&lt;font style=&quot;vertical-align: inherit;&quot;&gt;likes&lt;/font&gt;&lt;/font&gt;" style="whiteSpace=wrap;html=1;" parent="1" vertex="1">
          <mxGeometry x="370" y="160" width="120" height="60" as="geometry" />
        </mxCell>
        <mxCell id="vrrsMKaeA1Si1GtD4l2M-38" style="edgeStyle=orthogonalEdgeStyle;rounded=0;orthogonalLoop=1;jettySize=auto;html=1;exitX=0.5;exitY=1;exitDx=0;exitDy=0;entryX=0.5;entryY=0;entryDx=0;entryDy=0;" parent="1" source="vrrsMKaeA1Si1GtD4l2M-4" target="vrrsMKaeA1Si1GtD4l2M-27" edge="1">
          <mxGeometry relative="1" as="geometry" />
        </mxCell>
        <mxCell id="vrrsMKaeA1Si1GtD4l2M-4" value="&lt;font style=&quot;vertical-align: inherit;&quot;&gt;&lt;font style=&quot;vertical-align: inherit;&quot;&gt;dislikes&lt;/font&gt;&lt;/font&gt;" style="whiteSpace=wrap;html=1;" parent="1" vertex="1">
          <mxGeometry x="590" y="160" width="120" height="60" as="geometry" />
        </mxCell>
        <mxCell id="vrrsMKaeA1Si1GtD4l2M-39" style="edgeStyle=orthogonalEdgeStyle;rounded=0;orthogonalLoop=1;jettySize=auto;html=1;exitX=0.5;exitY=1;exitDx=0;exitDy=0;entryX=0.5;entryY=0;entryDx=0;entryDy=0;" parent="1" source="vrrsMKaeA1Si1GtD4l2M-5" target="vrrsMKaeA1Si1GtD4l2M-27" edge="1">
          <mxGeometry relative="1" as="geometry" />
        </mxCell>
        <mxCell id="vrrsMKaeA1Si1GtD4l2M-5" value="&lt;font style=&quot;vertical-align: inherit;&quot;&gt;&lt;font style=&quot;vertical-align: inherit;&quot;&gt;times&lt;/font&gt;&lt;/font&gt;" style="whiteSpace=wrap;html=1;" parent="1" vertex="1">
          <mxGeometry x="817.5" y="160" width="120" height="60" as="geometry" />
        </mxCell>
        <mxCell id="PJP3eP3opKHFydNVywa3-13" value="" style="edgeStyle=orthogonalEdgeStyle;rounded=0;orthogonalLoop=1;jettySize=auto;html=1;" edge="1" parent="1" source="vrrsMKaeA1Si1GtD4l2M-7" target="PJP3eP3opKHFydNVywa3-12">
          <mxGeometry relative="1" as="geometry" />
        </mxCell>
        <mxCell id="vrrsMKaeA1Si1GtD4l2M-7" value="&lt;font style=&quot;vertical-align: inherit;&quot;&gt;&lt;font style=&quot;vertical-align: inherit;&quot;&gt;tags&lt;/font&gt;&lt;/font&gt;" style="whiteSpace=wrap;html=1;" parent="1" vertex="1">
          <mxGeometry x="757.5" y="400" width="120" height="60" as="geometry" />
        </mxCell>
        <mxCell id="vrrsMKaeA1Si1GtD4l2M-8" value="1er paramètre" style="text;strokeColor=none;align=center;fillColor=none;html=1;verticalAlign=middle;whiteSpace=wrap;rounded=0;" parent="1" vertex="1">
          <mxGeometry x="10" y="40" width="90" height="30" as="geometry" />
        </mxCell>
        <mxCell id="vrrsMKaeA1Si1GtD4l2M-9" value="2ème paramètre" style="text;strokeColor=none;align=center;fillColor=none;html=1;verticalAlign=middle;whiteSpace=wrap;rounded=0;" parent="1" vertex="1">
          <mxGeometry x="10" y="175" width="100" height="30" as="geometry" />
        </mxCell>
        <mxCell id="vrrsMKaeA1Si1GtD4l2M-54" style="edgeStyle=orthogonalEdgeStyle;rounded=0;orthogonalLoop=1;jettySize=auto;html=1;exitX=0.5;exitY=1;exitDx=0;exitDy=0;entryX=0.5;entryY=0;entryDx=0;entryDy=0;" parent="1" source="vrrsMKaeA1Si1GtD4l2M-16" target="vrrsMKaeA1Si1GtD4l2M-51" edge="1">
          <mxGeometry relative="1" as="geometry" />
        </mxCell>
        <mxCell id="vrrsMKaeA1Si1GtD4l2M-55" style="edgeStyle=orthogonalEdgeStyle;rounded=0;orthogonalLoop=1;jettySize=auto;html=1;exitX=0.5;exitY=1;exitDx=0;exitDy=0;" parent="1" source="vrrsMKaeA1Si1GtD4l2M-16" target="vrrsMKaeA1Si1GtD4l2M-50" edge="1">
          <mxGeometry relative="1" as="geometry" />
        </mxCell>
        <mxCell id="PJP3eP3opKHFydNVywa3-11" value="" style="edgeStyle=orthogonalEdgeStyle;rounded=0;orthogonalLoop=1;jettySize=auto;html=1;entryX=0.5;entryY=0;entryDx=0;entryDy=0;exitX=0.5;exitY=1;exitDx=0;exitDy=0;" edge="1" parent="1" source="vrrsMKaeA1Si1GtD4l2M-16" target="vrrsMKaeA1Si1GtD4l2M-7">
          <mxGeometry relative="1" as="geometry">
            <mxPoint x="860" y="310" as="targetPoint" />
          </mxGeometry>
        </mxCell>
        <mxCell id="vrrsMKaeA1Si1GtD4l2M-16" value="&lt;font style=&quot;vertical-align: inherit;&quot;&gt;&lt;font style=&quot;vertical-align: inherit;&quot;&gt;n (un nombre)&lt;/font&gt;&lt;/font&gt;" style="whiteSpace=wrap;html=1;" parent="1" vertex="1">
          <mxGeometry x="590" y="290" width="120" height="60" as="geometry" />
        </mxCell>
        <mxCell id="vrrsMKaeA1Si1GtD4l2M-47" value="" style="edgeStyle=orthogonalEdgeStyle;rounded=0;orthogonalLoop=1;jettySize=auto;html=1;" parent="1" source="vrrsMKaeA1Si1GtD4l2M-17" edge="1">
          <mxGeometry relative="1" as="geometry">
            <mxPoint x="595" y="400" as="targetPoint" />
          </mxGeometry>
        </mxCell>
        <mxCell id="vrrsMKaeA1Si1GtD4l2M-49" style="edgeStyle=orthogonalEdgeStyle;rounded=0;orthogonalLoop=1;jettySize=auto;html=1;exitX=0.5;exitY=1;exitDx=0;exitDy=0;entryX=0.5;entryY=0;entryDx=0;entryDy=0;" parent="1" source="vrrsMKaeA1Si1GtD4l2M-18" edge="1">
          <mxGeometry relative="1" as="geometry">
            <mxPoint x="752.5" y="400" as="targetPoint" />
          </mxGeometry>
        </mxCell>
        <mxCell id="vrrsMKaeA1Si1GtD4l2M-27" value="affiche le top 1" style="whiteSpace=wrap;html=1;" parent="1" vertex="1">
          <mxGeometry x="275" y="290" width="120" height="60" as="geometry" />
        </mxCell>
        <mxCell id="vrrsMKaeA1Si1GtD4l2M-28" value="3ème paramètre" style="text;strokeColor=none;align=center;fillColor=none;html=1;verticalAlign=middle;whiteSpace=wrap;rounded=0;" parent="1" vertex="1">
          <mxGeometry x="10" y="305" width="100" height="30" as="geometry" />
        </mxCell>
        <mxCell id="vrrsMKaeA1Si1GtD4l2M-57" style="edgeStyle=orthogonalEdgeStyle;rounded=0;orthogonalLoop=1;jettySize=auto;html=1;exitX=0.5;exitY=1;exitDx=0;exitDy=0;entryX=0.5;entryY=0;entryDx=0;entryDy=0;" parent="1" source="vrrsMKaeA1Si1GtD4l2M-50" target="vrrsMKaeA1Si1GtD4l2M-52" edge="1">
          <mxGeometry relative="1" as="geometry" />
        </mxCell>
        <mxCell id="vrrsMKaeA1Si1GtD4l2M-50" value="pornstars" style="whiteSpace=wrap;html=1;" parent="1" vertex="1">
          <mxGeometry x="420" y="400" width="120" height="60" as="geometry" />
        </mxCell>
        <mxCell id="vrrsMKaeA1Si1GtD4l2M-56" style="edgeStyle=orthogonalEdgeStyle;rounded=0;orthogonalLoop=1;jettySize=auto;html=1;exitX=0.5;exitY=1;exitDx=0;exitDy=0;entryX=0.5;entryY=0;entryDx=0;entryDy=0;" parent="1" source="vrrsMKaeA1Si1GtD4l2M-51" target="vrrsMKaeA1Si1GtD4l2M-53" edge="1">
          <mxGeometry relative="1" as="geometry" />
        </mxCell>
        <mxCell id="vrrsMKaeA1Si1GtD4l2M-51" value="&lt;font style=&quot;vertical-align: inherit;&quot;&gt;&lt;font style=&quot;vertical-align: inherit;&quot;&gt;categories&lt;/font&gt;&lt;/font&gt;" style="whiteSpace=wrap;html=1;" parent="1" vertex="1">
          <mxGeometry x="590" y="400" width="120" height="60" as="geometry" />
        </mxCell>
        <mxCell id="PJP3eP3opKHFydNVywa3-5" value="" style="edgeStyle=orthogonalEdgeStyle;rounded=0;orthogonalLoop=1;jettySize=auto;html=1;entryX=0.5;entryY=0;entryDx=0;entryDy=0;exitX=0.5;exitY=1;exitDx=0;exitDy=0;" edge="1" parent="1" source="vrrsMKaeA1Si1GtD4l2M-52" target="WaS7UaVWkDxvWw7TXqmG-1">
          <mxGeometry relative="1" as="geometry">
            <mxPoint x="740" y="650" as="targetPoint" />
          </mxGeometry>
        </mxCell>
        <mxCell id="vrrsMKaeA1Si1GtD4l2M-53" value="entrer nom categorie" style="whiteSpace=wrap;html=1;" parent="1" vertex="1">
          <mxGeometry x="582.5" y="510" width="135" height="60" as="geometry" />
        </mxCell>
        <mxCell id="vrrsMKaeA1Si1GtD4l2M-58" value="4ème paramètre" style="text;strokeColor=none;align=center;fillColor=none;html=1;verticalAlign=middle;whiteSpace=wrap;rounded=0;" parent="1" vertex="1">
          <mxGeometry x="10" y="415" width="100" height="30" as="geometry" />
        </mxCell>
        <mxCell id="vrrsMKaeA1Si1GtD4l2M-59" value="5ème paramètre" style="text;strokeColor=none;align=center;fillColor=none;html=1;verticalAlign=middle;whiteSpace=wrap;rounded=0;" parent="1" vertex="1">
          <mxGeometry x="10" y="525" width="100" height="30" as="geometry" />
        </mxCell>
        <mxCell id="vrrsMKaeA1Si1GtD4l2M-61" value="" style="edgeStyle=none;orthogonalLoop=1;jettySize=auto;html=1;rounded=0;endArrow=none;endFill=0;strokeColor=#FF0000;" parent="1" edge="1">
          <mxGeometry width="80" relative="1" as="geometry">
            <mxPoint x="280" y="360" as="sourcePoint" />
            <mxPoint x="390" y="360" as="targetPoint" />
            <Array as="points" />
          </mxGeometry>
        </mxCell>
        <mxCell id="vrrsMKaeA1Si1GtD4l2M-63" value="" style="edgeStyle=none;orthogonalLoop=1;jettySize=auto;html=1;rounded=0;endArrow=none;endFill=0;strokeColor=#FF0000;" parent="1" edge="1">
          <mxGeometry width="80" relative="1" as="geometry">
            <mxPoint x="430" y="620" as="sourcePoint" />
            <mxPoint x="877.5" y="620" as="targetPoint" />
            <Array as="points" />
          </mxGeometry>
        </mxCell>
        <mxCell id="vrrsMKaeA1Si1GtD4l2M-64" value="" style="edgeStyle=none;orthogonalLoop=1;jettySize=auto;html=1;rounded=0;endArrow=none;endFill=0;strokeColor=#00FF00;" parent="1" edge="1">
          <mxGeometry width="80" relative="1" as="geometry">
            <mxPoint x="160" y="240" as="sourcePoint" />
            <mxPoint x="940" y="240" as="targetPoint" />
            <Array as="points" />
          </mxGeometry>
        </mxCell>
        <mxCell id="rJf5f7ZzN7NKhEMp3nlt-1" value="" style="edgeStyle=none;orthogonalLoop=1;jettySize=auto;html=1;rounded=0;endArrow=none;endFill=0;strokeColor=#FF0000;" parent="1" edge="1">
          <mxGeometry width="80" relative="1" as="geometry">
            <mxPoint x="10" y="640" as="sourcePoint" />
            <mxPoint x="40" y="640" as="targetPoint" />
            <Array as="points" />
          </mxGeometry>
        </mxCell>
        <mxCell id="rJf5f7ZzN7NKhEMp3nlt-2" value="" style="edgeStyle=none;orthogonalLoop=1;jettySize=auto;html=1;rounded=0;endArrow=none;endFill=0;strokeColor=#00FF00;" parent="1" edge="1">
          <mxGeometry width="80" relative="1" as="geometry">
            <mxPoint x="10" y="670" as="sourcePoint" />
            <mxPoint x="40" y="670" as="targetPoint" />
            <Array as="points" />
          </mxGeometry>
        </mxCell>
        <mxCell id="rJf5f7ZzN7NKhEMp3nlt-3" value="dernier paramètre" style="text;strokeColor=none;align=center;fillColor=none;html=1;verticalAlign=middle;whiteSpace=wrap;rounded=0;" parent="1" vertex="1">
          <mxGeometry x="50" y="620" width="110" height="30" as="geometry" />
        </mxCell>
        <mxCell id="rJf5f7ZzN7NKhEMp3nlt-4" value="affichage du bouton &quot;ok&quot;" style="text;strokeColor=none;align=center;fillColor=none;html=1;verticalAlign=middle;whiteSpace=wrap;rounded=0;" parent="1" vertex="1">
          <mxGeometry x="50" y="650" width="150" height="30" as="geometry" />
        </mxCell>
        <mxCell id="WaS7UaVWkDxvWw7TXqmG-1" value="affiche le top" style="whiteSpace=wrap;html=1;" vertex="1" parent="1">
          <mxGeometry x="590" y="650" width="120" height="60" as="geometry" />
        </mxCell>
        <mxCell id="vrrsMKaeA1Si1GtD4l2M-52" value="entrer nom actrice" style="whiteSpace=wrap;html=1;" parent="1" vertex="1">
          <mxGeometry x="412.5" y="510" width="135" height="60" as="geometry" />
        </mxCell>
        <mxCell id="PJP3eP3opKHFydNVywa3-12" value="entrer nom categorie" style="whiteSpace=wrap;html=1;" vertex="1" parent="1">
          <mxGeometry x="750" y="510" width="135" height="60" as="geometry" />
        </mxCell>
        <mxCell id="PJP3eP3opKHFydNVywa3-20" value="" style="edgeStyle=orthogonalEdgeStyle;rounded=0;orthogonalLoop=1;jettySize=auto;html=1;exitX=0.5;exitY=1;exitDx=0;exitDy=0;" edge="1" parent="1" source="vrrsMKaeA1Si1GtD4l2M-53">
          <mxGeometry relative="1" as="geometry">
            <mxPoint x="490" y="580" as="sourcePoint" />
            <mxPoint x="650" y="650" as="targetPoint" />
          </mxGeometry>
        </mxCell>
        <mxCell id="PJP3eP3opKHFydNVywa3-21" value="" style="edgeStyle=orthogonalEdgeStyle;rounded=0;orthogonalLoop=1;jettySize=auto;html=1;exitX=0.5;exitY=1;exitDx=0;exitDy=0;" edge="1" parent="1" source="PJP3eP3opKHFydNVywa3-12">
          <mxGeometry relative="1" as="geometry">
            <mxPoint x="500" y="590" as="sourcePoint" />
            <mxPoint x="650" y="650" as="targetPoint" />
          </mxGeometry>
        </mxCell>
      </root>
    </mxGraphModel>
  </diagram>
  <diagram id="--xemVNAaSFQE_xTYlSR" name="bottom">
    <mxGraphModel dx="1400" dy="743" grid="1" gridSize="10" guides="1" tooltips="1" connect="1" arrows="1" fold="1" page="1" pageScale="1" pageWidth="1169" pageHeight="1654" math="0" shadow="0">
      <root>
        <mxCell id="0" />
        <mxCell id="1" parent="0" />
        <mxCell id="PQvcPjdyDVchvKq56gJl-45" style="edgeStyle=orthogonalEdgeStyle;rounded=0;orthogonalLoop=1;jettySize=auto;html=1;exitX=0.5;exitY=1;exitDx=0;exitDy=0;entryX=0.5;entryY=0;entryDx=0;entryDy=0;" edge="1" parent="1" source="PQvcPjdyDVchvKq56gJl-49" target="PQvcPjdyDVchvKq56gJl-52">
          <mxGeometry relative="1" as="geometry" />
        </mxCell>
        <mxCell id="PQvcPjdyDVchvKq56gJl-46" style="edgeStyle=orthogonalEdgeStyle;rounded=0;orthogonalLoop=1;jettySize=auto;html=1;exitX=0.5;exitY=1;exitDx=0;exitDy=0;entryX=0.5;entryY=0;entryDx=0;entryDy=0;" edge="1" parent="1" source="PQvcPjdyDVchvKq56gJl-49" target="PQvcPjdyDVchvKq56gJl-54">
          <mxGeometry relative="1" as="geometry" />
        </mxCell>
        <mxCell id="PQvcPjdyDVchvKq56gJl-47" style="edgeStyle=orthogonalEdgeStyle;rounded=0;orthogonalLoop=1;jettySize=auto;html=1;exitX=0.5;exitY=1;exitDx=0;exitDy=0;" edge="1" parent="1" source="PQvcPjdyDVchvKq56gJl-49" target="PQvcPjdyDVchvKq56gJl-56">
          <mxGeometry relative="1" as="geometry" />
        </mxCell>
        <mxCell id="PQvcPjdyDVchvKq56gJl-48" style="edgeStyle=orthogonalEdgeStyle;rounded=0;orthogonalLoop=1;jettySize=auto;html=1;exitX=0.5;exitY=1;exitDx=0;exitDy=0;entryX=0.5;entryY=0;entryDx=0;entryDy=0;" edge="1" parent="1" source="PQvcPjdyDVchvKq56gJl-49" target="PQvcPjdyDVchvKq56gJl-58">
          <mxGeometry relative="1" as="geometry" />
        </mxCell>
        <mxCell id="PQvcPjdyDVchvKq56gJl-49" value="bottom" style="whiteSpace=wrap;html=1;" vertex="1" parent="1">
          <mxGeometry x="500" y="20" width="120" height="60" as="geometry" />
        </mxCell>
        <mxCell id="PQvcPjdyDVchvKq56gJl-50" style="edgeStyle=orthogonalEdgeStyle;rounded=0;orthogonalLoop=1;jettySize=auto;html=1;exitX=0.5;exitY=1;exitDx=0;exitDy=0;" edge="1" parent="1" source="PQvcPjdyDVchvKq56gJl-52" target="PQvcPjdyDVchvKq56gJl-67">
          <mxGeometry relative="1" as="geometry" />
        </mxCell>
        <mxCell id="PQvcPjdyDVchvKq56gJl-51" style="edgeStyle=orthogonalEdgeStyle;rounded=0;orthogonalLoop=1;jettySize=auto;html=1;exitX=0.5;exitY=1;exitDx=0;exitDy=0;entryX=0.5;entryY=0;entryDx=0;entryDy=0;" edge="1" parent="1" source="PQvcPjdyDVchvKq56gJl-52" target="PQvcPjdyDVchvKq56gJl-66">
          <mxGeometry relative="1" as="geometry" />
        </mxCell>
        <mxCell id="PQvcPjdyDVchvKq56gJl-52" value="&lt;font style=&quot;vertical-align: inherit;&quot;&gt;&lt;font style=&quot;vertical-align: inherit;&quot;&gt;views&lt;/font&gt;&lt;/font&gt;" style="whiteSpace=wrap;html=1;" vertex="1" parent="1">
          <mxGeometry x="180" y="170" width="120" height="60" as="geometry" />
        </mxCell>
        <mxCell id="PQvcPjdyDVchvKq56gJl-53" style="edgeStyle=orthogonalEdgeStyle;rounded=0;orthogonalLoop=1;jettySize=auto;html=1;exitX=0.5;exitY=1;exitDx=0;exitDy=0;entryX=0.5;entryY=0;entryDx=0;entryDy=0;" edge="1" parent="1" source="PQvcPjdyDVchvKq56gJl-54" target="PQvcPjdyDVchvKq56gJl-67">
          <mxGeometry relative="1" as="geometry" />
        </mxCell>
        <mxCell id="PQvcPjdyDVchvKq56gJl-54" value="&lt;font style=&quot;vertical-align: inherit;&quot;&gt;&lt;font style=&quot;vertical-align: inherit;&quot;&gt;likes&lt;/font&gt;&lt;/font&gt;" style="whiteSpace=wrap;html=1;" vertex="1" parent="1">
          <mxGeometry x="380" y="170" width="120" height="60" as="geometry" />
        </mxCell>
        <mxCell id="PQvcPjdyDVchvKq56gJl-55" style="edgeStyle=orthogonalEdgeStyle;rounded=0;orthogonalLoop=1;jettySize=auto;html=1;exitX=0.5;exitY=1;exitDx=0;exitDy=0;entryX=0.5;entryY=0;entryDx=0;entryDy=0;" edge="1" parent="1" source="PQvcPjdyDVchvKq56gJl-56" target="PQvcPjdyDVchvKq56gJl-67">
          <mxGeometry relative="1" as="geometry" />
        </mxCell>
        <mxCell id="PQvcPjdyDVchvKq56gJl-56" value="&lt;font style=&quot;vertical-align: inherit;&quot;&gt;&lt;font style=&quot;vertical-align: inherit;&quot;&gt;dislikes&lt;/font&gt;&lt;/font&gt;" style="whiteSpace=wrap;html=1;" vertex="1" parent="1">
          <mxGeometry x="600" y="170" width="120" height="60" as="geometry" />
        </mxCell>
        <mxCell id="PQvcPjdyDVchvKq56gJl-57" style="edgeStyle=orthogonalEdgeStyle;rounded=0;orthogonalLoop=1;jettySize=auto;html=1;exitX=0.5;exitY=1;exitDx=0;exitDy=0;entryX=0.5;entryY=0;entryDx=0;entryDy=0;" edge="1" parent="1" source="PQvcPjdyDVchvKq56gJl-58" target="PQvcPjdyDVchvKq56gJl-67">
          <mxGeometry relative="1" as="geometry" />
        </mxCell>
        <mxCell id="PQvcPjdyDVchvKq56gJl-58" value="&lt;font style=&quot;vertical-align: inherit;&quot;&gt;&lt;font style=&quot;vertical-align: inherit;&quot;&gt;times&lt;/font&gt;&lt;/font&gt;" style="whiteSpace=wrap;html=1;" vertex="1" parent="1">
          <mxGeometry x="827.5" y="170" width="120" height="60" as="geometry" />
        </mxCell>
        <mxCell id="PQvcPjdyDVchvKq56gJl-59" value="" style="edgeStyle=orthogonalEdgeStyle;rounded=0;orthogonalLoop=1;jettySize=auto;html=1;" edge="1" parent="1" source="PQvcPjdyDVchvKq56gJl-60" target="PQvcPjdyDVchvKq56gJl-86">
          <mxGeometry relative="1" as="geometry" />
        </mxCell>
        <mxCell id="PQvcPjdyDVchvKq56gJl-60" value="&lt;font style=&quot;vertical-align: inherit;&quot;&gt;&lt;font style=&quot;vertical-align: inherit;&quot;&gt;tags&lt;/font&gt;&lt;/font&gt;" style="whiteSpace=wrap;html=1;" vertex="1" parent="1">
          <mxGeometry x="767.5" y="410" width="120" height="60" as="geometry" />
        </mxCell>
        <mxCell id="PQvcPjdyDVchvKq56gJl-61" value="1er paramètre" style="text;strokeColor=none;align=center;fillColor=none;html=1;verticalAlign=middle;whiteSpace=wrap;rounded=0;" vertex="1" parent="1">
          <mxGeometry x="20" y="50" width="90" height="30" as="geometry" />
        </mxCell>
        <mxCell id="PQvcPjdyDVchvKq56gJl-62" value="2ème paramètre" style="text;strokeColor=none;align=center;fillColor=none;html=1;verticalAlign=middle;whiteSpace=wrap;rounded=0;" vertex="1" parent="1">
          <mxGeometry x="20" y="185" width="100" height="30" as="geometry" />
        </mxCell>
        <mxCell id="PQvcPjdyDVchvKq56gJl-63" style="edgeStyle=orthogonalEdgeStyle;rounded=0;orthogonalLoop=1;jettySize=auto;html=1;exitX=0.5;exitY=1;exitDx=0;exitDy=0;entryX=0.5;entryY=0;entryDx=0;entryDy=0;" edge="1" parent="1" source="PQvcPjdyDVchvKq56gJl-66" target="PQvcPjdyDVchvKq56gJl-72">
          <mxGeometry relative="1" as="geometry" />
        </mxCell>
        <mxCell id="PQvcPjdyDVchvKq56gJl-64" style="edgeStyle=orthogonalEdgeStyle;rounded=0;orthogonalLoop=1;jettySize=auto;html=1;exitX=0.5;exitY=1;exitDx=0;exitDy=0;" edge="1" parent="1" source="PQvcPjdyDVchvKq56gJl-66" target="PQvcPjdyDVchvKq56gJl-70">
          <mxGeometry relative="1" as="geometry" />
        </mxCell>
        <mxCell id="PQvcPjdyDVchvKq56gJl-65" value="" style="edgeStyle=orthogonalEdgeStyle;rounded=0;orthogonalLoop=1;jettySize=auto;html=1;entryX=0.5;entryY=0;entryDx=0;entryDy=0;exitX=0.5;exitY=1;exitDx=0;exitDy=0;" edge="1" parent="1" source="PQvcPjdyDVchvKq56gJl-66" target="PQvcPjdyDVchvKq56gJl-60">
          <mxGeometry relative="1" as="geometry">
            <mxPoint x="870" y="320" as="targetPoint" />
          </mxGeometry>
        </mxCell>
        <mxCell id="PQvcPjdyDVchvKq56gJl-66" value="&lt;font style=&quot;vertical-align: inherit;&quot;&gt;&lt;font style=&quot;vertical-align: inherit;&quot;&gt;n (un nombre)&lt;/font&gt;&lt;/font&gt;" style="whiteSpace=wrap;html=1;" vertex="1" parent="1">
          <mxGeometry x="600" y="300" width="120" height="60" as="geometry" />
        </mxCell>
        <mxCell id="PQvcPjdyDVchvKq56gJl-67" value="affiche le top 1" style="whiteSpace=wrap;html=1;" vertex="1" parent="1">
          <mxGeometry x="285" y="300" width="120" height="60" as="geometry" />
        </mxCell>
        <mxCell id="PQvcPjdyDVchvKq56gJl-68" value="3ème paramètre" style="text;strokeColor=none;align=center;fillColor=none;html=1;verticalAlign=middle;whiteSpace=wrap;rounded=0;" vertex="1" parent="1">
          <mxGeometry x="20" y="315" width="100" height="30" as="geometry" />
        </mxCell>
        <mxCell id="PQvcPjdyDVchvKq56gJl-69" style="edgeStyle=orthogonalEdgeStyle;rounded=0;orthogonalLoop=1;jettySize=auto;html=1;exitX=0.5;exitY=1;exitDx=0;exitDy=0;entryX=0.5;entryY=0;entryDx=0;entryDy=0;" edge="1" parent="1" source="PQvcPjdyDVchvKq56gJl-70" target="PQvcPjdyDVchvKq56gJl-85">
          <mxGeometry relative="1" as="geometry" />
        </mxCell>
        <mxCell id="PQvcPjdyDVchvKq56gJl-70" value="pornstars" style="whiteSpace=wrap;html=1;" vertex="1" parent="1">
          <mxGeometry x="430" y="410" width="120" height="60" as="geometry" />
        </mxCell>
        <mxCell id="PQvcPjdyDVchvKq56gJl-71" style="edgeStyle=orthogonalEdgeStyle;rounded=0;orthogonalLoop=1;jettySize=auto;html=1;exitX=0.5;exitY=1;exitDx=0;exitDy=0;entryX=0.5;entryY=0;entryDx=0;entryDy=0;" edge="1" parent="1" source="PQvcPjdyDVchvKq56gJl-72" target="PQvcPjdyDVchvKq56gJl-74">
          <mxGeometry relative="1" as="geometry" />
        </mxCell>
        <mxCell id="PQvcPjdyDVchvKq56gJl-72" value="&lt;font style=&quot;vertical-align: inherit;&quot;&gt;&lt;font style=&quot;vertical-align: inherit;&quot;&gt;categories&lt;/font&gt;&lt;/font&gt;" style="whiteSpace=wrap;html=1;" vertex="1" parent="1">
          <mxGeometry x="600" y="410" width="120" height="60" as="geometry" />
        </mxCell>
        <mxCell id="PQvcPjdyDVchvKq56gJl-73" value="" style="edgeStyle=orthogonalEdgeStyle;rounded=0;orthogonalLoop=1;jettySize=auto;html=1;entryX=0.5;entryY=0;entryDx=0;entryDy=0;exitX=0.5;exitY=1;exitDx=0;exitDy=0;" edge="1" parent="1" source="PQvcPjdyDVchvKq56gJl-85" target="PQvcPjdyDVchvKq56gJl-84">
          <mxGeometry relative="1" as="geometry">
            <mxPoint x="750" y="660" as="targetPoint" />
          </mxGeometry>
        </mxCell>
        <mxCell id="PQvcPjdyDVchvKq56gJl-74" value="entrer nom categorie" style="whiteSpace=wrap;html=1;" vertex="1" parent="1">
          <mxGeometry x="592.5" y="520" width="135" height="60" as="geometry" />
        </mxCell>
        <mxCell id="PQvcPjdyDVchvKq56gJl-75" value="4ème paramètre" style="text;strokeColor=none;align=center;fillColor=none;html=1;verticalAlign=middle;whiteSpace=wrap;rounded=0;" vertex="1" parent="1">
          <mxGeometry x="20" y="425" width="100" height="30" as="geometry" />
        </mxCell>
        <mxCell id="PQvcPjdyDVchvKq56gJl-76" value="5ème paramètre" style="text;strokeColor=none;align=center;fillColor=none;html=1;verticalAlign=middle;whiteSpace=wrap;rounded=0;" vertex="1" parent="1">
          <mxGeometry x="20" y="535" width="100" height="30" as="geometry" />
        </mxCell>
        <mxCell id="PQvcPjdyDVchvKq56gJl-77" value="" style="edgeStyle=none;orthogonalLoop=1;jettySize=auto;html=1;rounded=0;endArrow=none;endFill=0;strokeColor=#FF0000;" edge="1" parent="1">
          <mxGeometry width="80" relative="1" as="geometry">
            <mxPoint x="290" y="370" as="sourcePoint" />
            <mxPoint x="400" y="370" as="targetPoint" />
            <Array as="points" />
          </mxGeometry>
        </mxCell>
        <mxCell id="PQvcPjdyDVchvKq56gJl-78" value="" style="edgeStyle=none;orthogonalLoop=1;jettySize=auto;html=1;rounded=0;endArrow=none;endFill=0;strokeColor=#FF0000;" edge="1" parent="1">
          <mxGeometry width="80" relative="1" as="geometry">
            <mxPoint x="440" y="630" as="sourcePoint" />
            <mxPoint x="887.5" y="630" as="targetPoint" />
            <Array as="points" />
          </mxGeometry>
        </mxCell>
        <mxCell id="PQvcPjdyDVchvKq56gJl-79" value="" style="edgeStyle=none;orthogonalLoop=1;jettySize=auto;html=1;rounded=0;endArrow=none;endFill=0;strokeColor=#00FF00;" edge="1" parent="1">
          <mxGeometry width="80" relative="1" as="geometry">
            <mxPoint x="170" y="250" as="sourcePoint" />
            <mxPoint x="950" y="250" as="targetPoint" />
            <Array as="points" />
          </mxGeometry>
        </mxCell>
        <mxCell id="PQvcPjdyDVchvKq56gJl-80" value="" style="edgeStyle=none;orthogonalLoop=1;jettySize=auto;html=1;rounded=0;endArrow=none;endFill=0;strokeColor=#FF0000;" edge="1" parent="1">
          <mxGeometry width="80" relative="1" as="geometry">
            <mxPoint x="20" y="650" as="sourcePoint" />
            <mxPoint x="50" y="650" as="targetPoint" />
            <Array as="points" />
          </mxGeometry>
        </mxCell>
        <mxCell id="PQvcPjdyDVchvKq56gJl-81" value="" style="edgeStyle=none;orthogonalLoop=1;jettySize=auto;html=1;rounded=0;endArrow=none;endFill=0;strokeColor=#00FF00;" edge="1" parent="1">
          <mxGeometry width="80" relative="1" as="geometry">
            <mxPoint x="20" y="680" as="sourcePoint" />
            <mxPoint x="50" y="680" as="targetPoint" />
            <Array as="points" />
          </mxGeometry>
        </mxCell>
        <mxCell id="PQvcPjdyDVchvKq56gJl-82" value="dernier paramètre" style="text;strokeColor=none;align=center;fillColor=none;html=1;verticalAlign=middle;whiteSpace=wrap;rounded=0;" vertex="1" parent="1">
          <mxGeometry x="60" y="630" width="110" height="30" as="geometry" />
        </mxCell>
        <mxCell id="PQvcPjdyDVchvKq56gJl-83" value="affichage du bouton &quot;ok&quot;" style="text;strokeColor=none;align=center;fillColor=none;html=1;verticalAlign=middle;whiteSpace=wrap;rounded=0;" vertex="1" parent="1">
          <mxGeometry x="60" y="660" width="150" height="30" as="geometry" />
        </mxCell>
        <mxCell id="PQvcPjdyDVchvKq56gJl-84" value="affiche le top" style="whiteSpace=wrap;html=1;" vertex="1" parent="1">
          <mxGeometry x="600" y="660" width="120" height="60" as="geometry" />
        </mxCell>
        <mxCell id="PQvcPjdyDVchvKq56gJl-85" value="entrer nom actrice" style="whiteSpace=wrap;html=1;" vertex="1" parent="1">
          <mxGeometry x="422.5" y="520" width="135" height="60" as="geometry" />
        </mxCell>
        <mxCell id="PQvcPjdyDVchvKq56gJl-86" value="entrer nom categorie" style="whiteSpace=wrap;html=1;" vertex="1" parent="1">
          <mxGeometry x="760" y="520" width="135" height="60" as="geometry" />
        </mxCell>
        <mxCell id="PQvcPjdyDVchvKq56gJl-87" value="" style="edgeStyle=orthogonalEdgeStyle;rounded=0;orthogonalLoop=1;jettySize=auto;html=1;exitX=0.5;exitY=1;exitDx=0;exitDy=0;" edge="1" parent="1" source="PQvcPjdyDVchvKq56gJl-74">
          <mxGeometry relative="1" as="geometry">
            <mxPoint x="500" y="590" as="sourcePoint" />
            <mxPoint x="660" y="660" as="targetPoint" />
          </mxGeometry>
        </mxCell>
        <mxCell id="PQvcPjdyDVchvKq56gJl-88" value="" style="edgeStyle=orthogonalEdgeStyle;rounded=0;orthogonalLoop=1;jettySize=auto;html=1;exitX=0.5;exitY=1;exitDx=0;exitDy=0;" edge="1" parent="1" source="PQvcPjdyDVchvKq56gJl-86">
          <mxGeometry relative="1" as="geometry">
            <mxPoint x="510" y="600" as="sourcePoint" />
            <mxPoint x="660" y="660" as="targetPoint" />
          </mxGeometry>
        </mxCell>
      </root>
    </mxGraphModel>
  </diagram>
  <diagram id="I1ZOqZx_e5Jbpgx3S5ow" name="average">
    <mxGraphModel dx="1050" dy="510" grid="1" gridSize="10" guides="1" tooltips="1" connect="1" arrows="1" fold="1" page="1" pageScale="1" pageWidth="1169" pageHeight="1654" math="0" shadow="0">
      <root>
        <mxCell id="0" />
        <mxCell id="1" parent="0" />
        <mxCell id="8LfZb2uXxMZ_fqVtrUdt-2" style="edgeStyle=orthogonalEdgeStyle;rounded=0;orthogonalLoop=1;jettySize=auto;html=1;exitX=0.5;exitY=1;exitDx=0;exitDy=0;" parent="1" source="kaEeEKsFFv1D66lJCo6d-1" target="VqsyKs9NltsK662eaX_w-1" edge="1">
          <mxGeometry relative="1" as="geometry" />
        </mxCell>
        <mxCell id="8LfZb2uXxMZ_fqVtrUdt-3" style="edgeStyle=orthogonalEdgeStyle;rounded=0;orthogonalLoop=1;jettySize=auto;html=1;exitX=0.5;exitY=1;exitDx=0;exitDy=0;" parent="1" source="kaEeEKsFFv1D66lJCo6d-1" target="VqsyKs9NltsK662eaX_w-2" edge="1">
          <mxGeometry relative="1" as="geometry" />
        </mxCell>
        <mxCell id="8LfZb2uXxMZ_fqVtrUdt-4" style="edgeStyle=orthogonalEdgeStyle;rounded=0;orthogonalLoop=1;jettySize=auto;html=1;exitX=0.5;exitY=1;exitDx=0;exitDy=0;" parent="1" source="kaEeEKsFFv1D66lJCo6d-1" target="VqsyKs9NltsK662eaX_w-3" edge="1">
          <mxGeometry relative="1" as="geometry" />
        </mxCell>
        <mxCell id="8LfZb2uXxMZ_fqVtrUdt-5" style="edgeStyle=orthogonalEdgeStyle;rounded=0;orthogonalLoop=1;jettySize=auto;html=1;exitX=0.5;exitY=1;exitDx=0;exitDy=0;entryX=0.5;entryY=0;entryDx=0;entryDy=0;" parent="1" source="kaEeEKsFFv1D66lJCo6d-1" target="VqsyKs9NltsK662eaX_w-4" edge="1">
          <mxGeometry relative="1" as="geometry" />
        </mxCell>
        <mxCell id="kaEeEKsFFv1D66lJCo6d-1" value="&lt;font style=&quot;vertical-align: inherit;&quot;&gt;&lt;font style=&quot;vertical-align: inherit;&quot;&gt;average&lt;/font&gt;&lt;/font&gt;" style="whiteSpace=wrap;html=1;" parent="1" vertex="1">
          <mxGeometry x="470" y="10" width="120" height="60" as="geometry" />
        </mxCell>
        <mxCell id="uXXc6JB86dKhNOKuER85-1" value="1er paramètre" style="text;strokeColor=none;align=center;fillColor=none;html=1;verticalAlign=middle;whiteSpace=wrap;rounded=0;" parent="1" vertex="1">
          <mxGeometry x="10" y="25" width="90" height="30" as="geometry" />
        </mxCell>
        <mxCell id="Xn2ltAXIHFvcWH6fDHs3-7" style="edgeStyle=orthogonalEdgeStyle;rounded=0;orthogonalLoop=1;jettySize=auto;html=1;exitX=0.5;exitY=1;exitDx=0;exitDy=0;entryX=0.5;entryY=0;entryDx=0;entryDy=0;" parent="1" source="VqsyKs9NltsK662eaX_w-1" target="Xn2ltAXIHFvcWH6fDHs3-2" edge="1">
          <mxGeometry relative="1" as="geometry" />
        </mxCell>
        <mxCell id="Xn2ltAXIHFvcWH6fDHs3-9" style="edgeStyle=orthogonalEdgeStyle;rounded=0;orthogonalLoop=1;jettySize=auto;html=1;exitX=0.5;exitY=1;exitDx=0;exitDy=0;entryX=0.5;entryY=0;entryDx=0;entryDy=0;" parent="1" source="VqsyKs9NltsK662eaX_w-1" target="Xn2ltAXIHFvcWH6fDHs3-4" edge="1">
          <mxGeometry relative="1" as="geometry" />
        </mxCell>
        <mxCell id="VqsyKs9NltsK662eaX_w-1" value="&lt;font style=&quot;vertical-align: inherit;&quot;&gt;&lt;font style=&quot;vertical-align: inherit;&quot;&gt;views&lt;/font&gt;&lt;/font&gt;" style="whiteSpace=wrap;html=1;" parent="1" vertex="1">
          <mxGeometry x="260" y="160" width="120" height="60" as="geometry" />
        </mxCell>
        <mxCell id="Xn2ltAXIHFvcWH6fDHs3-11" style="edgeStyle=orthogonalEdgeStyle;rounded=0;orthogonalLoop=1;jettySize=auto;html=1;exitX=0.5;exitY=1;exitDx=0;exitDy=0;entryX=0.5;entryY=0;entryDx=0;entryDy=0;" parent="1" source="VqsyKs9NltsK662eaX_w-2" target="Xn2ltAXIHFvcWH6fDHs3-2" edge="1">
          <mxGeometry relative="1" as="geometry" />
        </mxCell>
        <mxCell id="VqsyKs9NltsK662eaX_w-2" value="&lt;font style=&quot;vertical-align: inherit;&quot;&gt;&lt;font style=&quot;vertical-align: inherit;&quot;&gt;likes&lt;/font&gt;&lt;/font&gt;" style="whiteSpace=wrap;html=1;" parent="1" vertex="1">
          <mxGeometry x="400" y="160" width="120" height="60" as="geometry" />
        </mxCell>
        <mxCell id="Xn2ltAXIHFvcWH6fDHs3-12" style="edgeStyle=orthogonalEdgeStyle;rounded=0;orthogonalLoop=1;jettySize=auto;html=1;exitX=0.5;exitY=1;exitDx=0;exitDy=0;entryX=0.5;entryY=0;entryDx=0;entryDy=0;" parent="1" source="VqsyKs9NltsK662eaX_w-3" target="Xn2ltAXIHFvcWH6fDHs3-2" edge="1">
          <mxGeometry relative="1" as="geometry" />
        </mxCell>
        <mxCell id="VqsyKs9NltsK662eaX_w-3" value="&lt;font style=&quot;vertical-align: inherit;&quot;&gt;&lt;font style=&quot;vertical-align: inherit;&quot;&gt;dislikes&lt;/font&gt;&lt;/font&gt;" style="whiteSpace=wrap;html=1;" parent="1" vertex="1">
          <mxGeometry x="540" y="160" width="120" height="60" as="geometry" />
        </mxCell>
        <mxCell id="Xn2ltAXIHFvcWH6fDHs3-13" style="edgeStyle=orthogonalEdgeStyle;rounded=0;orthogonalLoop=1;jettySize=auto;html=1;exitX=0.5;exitY=1;exitDx=0;exitDy=0;entryX=0.5;entryY=0;entryDx=0;entryDy=0;" parent="1" source="VqsyKs9NltsK662eaX_w-4" target="Xn2ltAXIHFvcWH6fDHs3-2" edge="1">
          <mxGeometry relative="1" as="geometry" />
        </mxCell>
        <mxCell id="VqsyKs9NltsK662eaX_w-4" value="&lt;font style=&quot;vertical-align: inherit;&quot;&gt;&lt;font style=&quot;vertical-align: inherit;&quot;&gt;times&lt;/font&gt;&lt;/font&gt;" style="whiteSpace=wrap;html=1;" parent="1" vertex="1">
          <mxGeometry x="680" y="160" width="120" height="60" as="geometry" />
        </mxCell>
        <mxCell id="8LfZb2uXxMZ_fqVtrUdt-1" value="2ème paramètre" style="text;strokeColor=none;align=center;fillColor=none;html=1;verticalAlign=middle;whiteSpace=wrap;rounded=0;" parent="1" vertex="1">
          <mxGeometry x="10" y="175" width="100" height="30" as="geometry" />
        </mxCell>
        <mxCell id="Mj9evMIJ7-wV_Ab2gQAm-1" value="" style="edgeStyle=none;orthogonalLoop=1;jettySize=auto;html=1;rounded=0;endArrow=none;endFill=0;strokeColor=#00FF00;" parent="1" edge="1">
          <mxGeometry width="80" relative="1" as="geometry">
            <mxPoint x="260" y="240" as="sourcePoint" />
            <mxPoint x="800" y="240" as="targetPoint" />
            <Array as="points" />
          </mxGeometry>
        </mxCell>
        <mxCell id="Xn2ltAXIHFvcWH6fDHs3-1" style="edgeStyle=orthogonalEdgeStyle;rounded=0;orthogonalLoop=1;jettySize=auto;html=1;exitX=0.5;exitY=1;exitDx=0;exitDy=0;entryX=0.5;entryY=0;entryDx=0;entryDy=0;" parent="1" source="Xn2ltAXIHFvcWH6fDHs3-2" target="Xn2ltAXIHFvcWH6fDHs3-5" edge="1">
          <mxGeometry relative="1" as="geometry" />
        </mxCell>
        <mxCell id="Xn2ltAXIHFvcWH6fDHs3-2" value="pornstars" style="whiteSpace=wrap;html=1;" parent="1" vertex="1">
          <mxGeometry x="407.5" y="280" width="120" height="60" as="geometry" />
        </mxCell>
        <mxCell id="Xn2ltAXIHFvcWH6fDHs3-3" style="edgeStyle=orthogonalEdgeStyle;rounded=0;orthogonalLoop=1;jettySize=auto;html=1;exitX=0.5;exitY=1;exitDx=0;exitDy=0;entryX=0.5;entryY=0;entryDx=0;entryDy=0;" parent="1" source="Xn2ltAXIHFvcWH6fDHs3-4" target="Xn2ltAXIHFvcWH6fDHs3-6" edge="1">
          <mxGeometry relative="1" as="geometry" />
        </mxCell>
        <mxCell id="Xn2ltAXIHFvcWH6fDHs3-4" value="&lt;font style=&quot;vertical-align: inherit;&quot;&gt;&lt;font style=&quot;vertical-align: inherit;&quot;&gt;categories&lt;/font&gt;&lt;/font&gt;" style="whiteSpace=wrap;html=1;" parent="1" vertex="1">
          <mxGeometry x="537.5" y="280" width="120" height="60" as="geometry" />
        </mxCell>
        <mxCell id="DnZ3Xf9-JwNyBpU38yin-2" value="" style="edgeStyle=orthogonalEdgeStyle;rounded=0;orthogonalLoop=1;jettySize=auto;html=1;" edge="1" parent="1" source="Xn2ltAXIHFvcWH6fDHs3-5" target="DnZ3Xf9-JwNyBpU38yin-1">
          <mxGeometry relative="1" as="geometry" />
        </mxCell>
        <mxCell id="Xn2ltAXIHFvcWH6fDHs3-5" value="entrer nom actrice" style="whiteSpace=wrap;html=1;" parent="1" vertex="1">
          <mxGeometry x="400" y="390" width="135" height="60" as="geometry" />
        </mxCell>
        <mxCell id="DnZ3Xf9-JwNyBpU38yin-3" value="" style="edgeStyle=orthogonalEdgeStyle;rounded=0;orthogonalLoop=1;jettySize=auto;html=1;" edge="1" parent="1" source="Xn2ltAXIHFvcWH6fDHs3-6" target="DnZ3Xf9-JwNyBpU38yin-1">
          <mxGeometry relative="1" as="geometry" />
        </mxCell>
        <mxCell id="Xn2ltAXIHFvcWH6fDHs3-6" value="entrer categorie" style="whiteSpace=wrap;html=1;" parent="1" vertex="1">
          <mxGeometry x="557.5" y="390" width="135" height="60" as="geometry" />
        </mxCell>
        <mxCell id="Z5HoI4T5_c9wrVK6ff1C-1" value="" style="edgeStyle=none;orthogonalLoop=1;jettySize=auto;html=1;rounded=0;endArrow=none;endFill=0;strokeColor=#FF0000;" parent="1" edge="1">
          <mxGeometry width="80" relative="1" as="geometry">
            <mxPoint x="400" y="460" as="sourcePoint" />
            <mxPoint x="690" y="460" as="targetPoint" />
            <Array as="points" />
          </mxGeometry>
        </mxCell>
        <mxCell id="70sQtJ6p22XFLVPJ-Jfo-1" value="3ème paramètre" style="text;strokeColor=none;align=center;fillColor=none;html=1;verticalAlign=middle;whiteSpace=wrap;rounded=0;" parent="1" vertex="1">
          <mxGeometry x="10" y="295" width="100" height="30" as="geometry" />
        </mxCell>
        <mxCell id="70sQtJ6p22XFLVPJ-Jfo-2" value="4ème paramètre" style="text;strokeColor=none;align=center;fillColor=none;html=1;verticalAlign=middle;whiteSpace=wrap;rounded=0;" parent="1" vertex="1">
          <mxGeometry x="10" y="405" width="100" height="30" as="geometry" />
        </mxCell>
        <mxCell id="O163YD2w_UHaaKGw2Jzk-1" value="" style="edgeStyle=none;orthogonalLoop=1;jettySize=auto;html=1;rounded=0;endArrow=none;endFill=0;strokeColor=#FF0000;" parent="1" edge="1">
          <mxGeometry width="80" relative="1" as="geometry">
            <mxPoint x="10" y="500" as="sourcePoint" />
            <mxPoint x="40" y="500" as="targetPoint" />
            <Array as="points" />
          </mxGeometry>
        </mxCell>
        <mxCell id="O163YD2w_UHaaKGw2Jzk-2" value="" style="edgeStyle=none;orthogonalLoop=1;jettySize=auto;html=1;rounded=0;endArrow=none;endFill=0;strokeColor=#00FF00;" parent="1" edge="1">
          <mxGeometry width="80" relative="1" as="geometry">
            <mxPoint x="10" y="530" as="sourcePoint" />
            <mxPoint x="40" y="530" as="targetPoint" />
            <Array as="points" />
          </mxGeometry>
        </mxCell>
        <mxCell id="O163YD2w_UHaaKGw2Jzk-3" value="dernier paramètre" style="text;strokeColor=none;align=center;fillColor=none;html=1;verticalAlign=middle;whiteSpace=wrap;rounded=0;" parent="1" vertex="1">
          <mxGeometry x="50" y="480" width="110" height="30" as="geometry" />
        </mxCell>
        <mxCell id="O163YD2w_UHaaKGw2Jzk-4" value="affichage du bouton &quot;ok&quot;" style="text;strokeColor=none;align=center;fillColor=none;html=1;verticalAlign=middle;whiteSpace=wrap;rounded=0;" parent="1" vertex="1">
          <mxGeometry x="50" y="510" width="150" height="30" as="geometry" />
        </mxCell>
        <mxCell id="DnZ3Xf9-JwNyBpU38yin-1" value="affiche la moyenne" style="whiteSpace=wrap;html=1;" vertex="1" parent="1">
          <mxGeometry x="490" y="510" width="120" height="60" as="geometry" />
        </mxCell>
      </root>
    </mxGraphModel>
  </diagram>
  <diagram id="kAFIZ6QzQEcHSJrFVYsu" name="count">
    <mxGraphModel dx="1050" dy="557" grid="1" gridSize="10" guides="1" tooltips="1" connect="1" arrows="1" fold="1" page="1" pageScale="1" pageWidth="1169" pageHeight="1654" math="0" shadow="0">
      <root>
        <mxCell id="0" />
        <mxCell id="1" parent="0" />
        <mxCell id="zOBHMGe4PUm0YkshVVOy-7" style="edgeStyle=orthogonalEdgeStyle;rounded=0;orthogonalLoop=1;jettySize=auto;html=1;exitX=0.5;exitY=1;exitDx=0;exitDy=0;entryX=0.5;entryY=0;entryDx=0;entryDy=0;" parent="1" source="FCC9lqwRjwqSmgFy9nHJ-1" target="zOBHMGe4PUm0YkshVVOy-2" edge="1">
          <mxGeometry relative="1" as="geometry">
            <Array as="points">
              <mxPoint x="530" y="90" />
              <mxPoint x="370" y="90" />
            </Array>
          </mxGeometry>
        </mxCell>
        <mxCell id="zOBHMGe4PUm0YkshVVOy-8" style="edgeStyle=orthogonalEdgeStyle;rounded=0;orthogonalLoop=1;jettySize=auto;html=1;exitX=0.5;exitY=1;exitDx=0;exitDy=0;entryX=0.5;entryY=0;entryDx=0;entryDy=0;" parent="1" source="FCC9lqwRjwqSmgFy9nHJ-1" target="zOBHMGe4PUm0YkshVVOy-4" edge="1">
          <mxGeometry relative="1" as="geometry" />
        </mxCell>
        <mxCell id="WUsOp4YX4EUNKRGnhK9d-4" value="" style="edgeStyle=orthogonalEdgeStyle;rounded=0;orthogonalLoop=1;jettySize=auto;html=1;" parent="1" source="FCC9lqwRjwqSmgFy9nHJ-1" target="zOBHMGe4PUm0YkshVVOy-4" edge="1">
          <mxGeometry relative="1" as="geometry" />
        </mxCell>
        <mxCell id="FCC9lqwRjwqSmgFy9nHJ-1" value="&lt;font style=&quot;vertical-align: inherit;&quot;&gt;&lt;font style=&quot;vertical-align: inherit;&quot;&gt;count&lt;/font&gt;&lt;/font&gt;" style="whiteSpace=wrap;html=1;" parent="1" vertex="1">
          <mxGeometry x="470" y="10" width="120" height="60" as="geometry" />
        </mxCell>
        <mxCell id="FCC9lqwRjwqSmgFy9nHJ-2" value="1er paramètre" style="text;strokeColor=none;align=center;fillColor=none;html=1;verticalAlign=middle;whiteSpace=wrap;rounded=0;" parent="1" vertex="1">
          <mxGeometry x="10" y="25" width="90" height="30" as="geometry" />
        </mxCell>
        <mxCell id="zOBHMGe4PUm0YkshVVOy-1" style="edgeStyle=orthogonalEdgeStyle;rounded=0;orthogonalLoop=1;jettySize=auto;html=1;exitX=0.5;exitY=1;exitDx=0;exitDy=0;entryX=0.5;entryY=0;entryDx=0;entryDy=0;" parent="1" source="zOBHMGe4PUm0YkshVVOy-2" target="zOBHMGe4PUm0YkshVVOy-5" edge="1">
          <mxGeometry relative="1" as="geometry" />
        </mxCell>
        <mxCell id="zOBHMGe4PUm0YkshVVOy-2" value="pornstars" style="whiteSpace=wrap;html=1;" parent="1" vertex="1">
          <mxGeometry x="310" y="120" width="120" height="60" as="geometry" />
        </mxCell>
        <mxCell id="zOBHMGe4PUm0YkshVVOy-3" style="edgeStyle=orthogonalEdgeStyle;rounded=0;orthogonalLoop=1;jettySize=auto;html=1;exitX=0.5;exitY=1;exitDx=0;exitDy=0;entryX=0.5;entryY=0;entryDx=0;entryDy=0;" parent="1" source="zOBHMGe4PUm0YkshVVOy-4" target="zOBHMGe4PUm0YkshVVOy-6" edge="1">
          <mxGeometry relative="1" as="geometry" />
        </mxCell>
        <mxCell id="zOBHMGe4PUm0YkshVVOy-4" value="&lt;font style=&quot;vertical-align: inherit;&quot;&gt;&lt;font style=&quot;vertical-align: inherit;&quot;&gt;categories&lt;/font&gt;&lt;/font&gt;" style="whiteSpace=wrap;html=1;" parent="1" vertex="1">
          <mxGeometry x="470" y="120" width="120" height="60" as="geometry" />
        </mxCell>
        <mxCell id="zOBHMGe4PUm0YkshVVOy-5" value="entrer nom actrice" style="whiteSpace=wrap;html=1;" parent="1" vertex="1">
          <mxGeometry x="302.5" y="230" width="135" height="60" as="geometry" />
        </mxCell>
        <mxCell id="iG7RFuLCTH3EYffoC4iy-2" value="" style="edgeStyle=orthogonalEdgeStyle;rounded=0;orthogonalLoop=1;jettySize=auto;html=1;" edge="1" parent="1" source="zOBHMGe4PUm0YkshVVOy-6" target="iG7RFuLCTH3EYffoC4iy-1">
          <mxGeometry relative="1" as="geometry" />
        </mxCell>
        <mxCell id="zOBHMGe4PUm0YkshVVOy-6" value="entrer nom categorie" style="whiteSpace=wrap;html=1;" parent="1" vertex="1">
          <mxGeometry x="462.5" y="230" width="135" height="60" as="geometry" />
        </mxCell>
        <mxCell id="9kAlomqapDIFbZkVjFRS-1" value="2ème paramètre" style="text;strokeColor=none;align=center;fillColor=none;html=1;verticalAlign=middle;whiteSpace=wrap;rounded=0;" parent="1" vertex="1">
          <mxGeometry x="10" y="135" width="100" height="30" as="geometry" />
        </mxCell>
        <mxCell id="9ViBIRC99Q2HtxVP-wAf-1" value="3ème paramètre" style="text;strokeColor=none;align=center;fillColor=none;html=1;verticalAlign=middle;whiteSpace=wrap;rounded=0;" parent="1" vertex="1">
          <mxGeometry x="10" y="245" width="100" height="30" as="geometry" />
        </mxCell>
        <mxCell id="S-QL9KcDyZFH6EVcouzb-1" value="" style="edgeStyle=none;orthogonalLoop=1;jettySize=auto;html=1;rounded=0;endArrow=none;endFill=0;strokeColor=#00FF00;" parent="1" edge="1">
          <mxGeometry width="80" relative="1" as="geometry">
            <mxPoint x="302.5" y="300" as="sourcePoint" />
            <mxPoint x="750" y="300" as="targetPoint" />
            <Array as="points" />
          </mxGeometry>
        </mxCell>
        <mxCell id="DOTt4KnsW6XAO2L-N3NA-1" value="" style="edgeStyle=none;orthogonalLoop=1;jettySize=auto;html=1;rounded=0;endArrow=none;endFill=0;strokeColor=#FF0000;" parent="1" edge="1">
          <mxGeometry width="80" relative="1" as="geometry">
            <mxPoint x="300" y="310" as="sourcePoint" />
            <mxPoint x="750" y="310" as="targetPoint" />
            <Array as="points" />
          </mxGeometry>
        </mxCell>
        <mxCell id="6dqUmflYN2hDEvHAtTnI-1" value="" style="edgeStyle=none;orthogonalLoop=1;jettySize=auto;html=1;rounded=0;endArrow=none;endFill=0;strokeColor=#FF0000;" parent="1" edge="1">
          <mxGeometry width="80" relative="1" as="geometry">
            <mxPoint x="10" y="350" as="sourcePoint" />
            <mxPoint x="40" y="350" as="targetPoint" />
            <Array as="points" />
          </mxGeometry>
        </mxCell>
        <mxCell id="6dqUmflYN2hDEvHAtTnI-2" value="" style="edgeStyle=none;orthogonalLoop=1;jettySize=auto;html=1;rounded=0;endArrow=none;endFill=0;strokeColor=#00FF00;" parent="1" edge="1">
          <mxGeometry width="80" relative="1" as="geometry">
            <mxPoint x="10" y="380" as="sourcePoint" />
            <mxPoint x="40" y="380" as="targetPoint" />
            <Array as="points" />
          </mxGeometry>
        </mxCell>
        <mxCell id="6dqUmflYN2hDEvHAtTnI-3" value="dernier paramètre" style="text;strokeColor=none;align=center;fillColor=none;html=1;verticalAlign=middle;whiteSpace=wrap;rounded=0;" parent="1" vertex="1">
          <mxGeometry x="50" y="330" width="110" height="30" as="geometry" />
        </mxCell>
        <mxCell id="6dqUmflYN2hDEvHAtTnI-4" value="affichage du bouton &quot;ok&quot;" style="text;strokeColor=none;align=center;fillColor=none;html=1;verticalAlign=middle;whiteSpace=wrap;rounded=0;" parent="1" vertex="1">
          <mxGeometry x="50" y="360" width="150" height="30" as="geometry" />
        </mxCell>
        <mxCell id="WUsOp4YX4EUNKRGnhK9d-3" value="" style="edgeStyle=orthogonalEdgeStyle;rounded=0;orthogonalLoop=1;jettySize=auto;html=1;" parent="1" source="WUsOp4YX4EUNKRGnhK9d-1" target="WUsOp4YX4EUNKRGnhK9d-2" edge="1">
          <mxGeometry relative="1" as="geometry" />
        </mxCell>
        <mxCell id="WUsOp4YX4EUNKRGnhK9d-1" value="tags" style="whiteSpace=wrap;html=1;" parent="1" vertex="1">
          <mxGeometry x="630" y="120" width="120" height="60" as="geometry" />
        </mxCell>
        <mxCell id="WUsOp4YX4EUNKRGnhK9d-2" value="entrer nom tags" style="whiteSpace=wrap;html=1;" parent="1" vertex="1">
          <mxGeometry x="630" y="230" width="120" height="60" as="geometry" />
        </mxCell>
        <mxCell id="WUsOp4YX4EUNKRGnhK9d-5" style="edgeStyle=orthogonalEdgeStyle;rounded=0;orthogonalLoop=1;jettySize=auto;html=1;entryX=0.5;entryY=0;entryDx=0;entryDy=0;" parent="1" edge="1">
          <mxGeometry relative="1" as="geometry">
            <mxPoint x="500" y="90" as="sourcePoint" />
            <mxPoint x="690" y="120" as="targetPoint" />
          </mxGeometry>
        </mxCell>
        <mxCell id="iG7RFuLCTH3EYffoC4iy-1" value="&lt;font style=&quot;vertical-align: inherit;&quot;&gt;&lt;font style=&quot;vertical-align: inherit;&quot;&gt;count&lt;/font&gt;&lt;/font&gt;" style="whiteSpace=wrap;html=1;" vertex="1" parent="1">
          <mxGeometry x="470" y="340" width="120" height="60" as="geometry" />
        </mxCell>
        <mxCell id="iG7RFuLCTH3EYffoC4iy-3" value="" style="edgeStyle=orthogonalEdgeStyle;rounded=0;orthogonalLoop=1;jettySize=auto;html=1;entryX=0.5;entryY=0;entryDx=0;entryDy=0;exitX=0.5;exitY=1;exitDx=0;exitDy=0;" edge="1" parent="1" source="WUsOp4YX4EUNKRGnhK9d-2" target="iG7RFuLCTH3EYffoC4iy-1">
          <mxGeometry relative="1" as="geometry">
            <mxPoint x="700" y="330" as="sourcePoint" />
            <mxPoint x="540" y="350" as="targetPoint" />
            <Array as="points">
              <mxPoint x="690" y="320" />
              <mxPoint x="530" y="320" />
            </Array>
          </mxGeometry>
        </mxCell>
        <mxCell id="iG7RFuLCTH3EYffoC4iy-4" value="" style="edgeStyle=orthogonalEdgeStyle;rounded=0;orthogonalLoop=1;jettySize=auto;html=1;entryX=0.5;entryY=0;entryDx=0;entryDy=0;exitX=0.5;exitY=1;exitDx=0;exitDy=0;" edge="1" parent="1" target="iG7RFuLCTH3EYffoC4iy-1">
          <mxGeometry relative="1" as="geometry">
            <mxPoint x="370" y="290" as="sourcePoint" />
            <mxPoint x="210" y="340" as="targetPoint" />
            <Array as="points">
              <mxPoint x="370" y="320" />
              <mxPoint x="530" y="320" />
            </Array>
          </mxGeometry>
        </mxCell>
      </root>
    </mxGraphModel>
  </diagram>
  <diagram id="Lqb3yUbu2-z9LYZW1LlS" name="src">
    <mxGraphModel dx="1050" dy="557" grid="1" gridSize="10" guides="1" tooltips="1" connect="1" arrows="1" fold="1" page="1" pageScale="1" pageWidth="1169" pageHeight="1654" math="0" shadow="0">
      <root>
        <mxCell id="0" />
        <mxCell id="1" parent="0" />
        <mxCell id="VtTIXLVnnVCGsvNudqPp-2" value="" style="edgeStyle=orthogonalEdgeStyle;rounded=0;orthogonalLoop=1;jettySize=auto;html=1;" parent="1" source="OnpBbtDu47MN_NM9YU8B-1" target="VtTIXLVnnVCGsvNudqPp-1" edge="1">
          <mxGeometry relative="1" as="geometry" />
        </mxCell>
        <mxCell id="OnpBbtDu47MN_NM9YU8B-1" value="&lt;font style=&quot;vertical-align: inherit;&quot;&gt;&lt;font style=&quot;vertical-align: inherit;&quot;&gt;src&lt;/font&gt;&lt;/font&gt;" style="whiteSpace=wrap;html=1;" parent="1" vertex="1">
          <mxGeometry x="480" y="10" width="120" height="60" as="geometry" />
        </mxCell>
        <mxCell id="OnpBbtDu47MN_NM9YU8B-2" value="1er paramètre" style="text;strokeColor=none;align=center;fillColor=none;html=1;verticalAlign=middle;whiteSpace=wrap;rounded=0;" parent="1" vertex="1">
          <mxGeometry x="10" y="25" width="90" height="30" as="geometry" />
        </mxCell>
        <mxCell id="OnpBbtDu47MN_NM9YU8B-3" value="2ème paramètre" style="text;strokeColor=none;align=center;fillColor=none;html=1;verticalAlign=middle;whiteSpace=wrap;rounded=0;" parent="1" vertex="1">
          <mxGeometry x="10" y="135" width="100" height="30" as="geometry" />
        </mxCell>
        <mxCell id="zz3ASiDsGIC_eClKR1H7-2" value="" style="edgeStyle=orthogonalEdgeStyle;rounded=0;orthogonalLoop=1;jettySize=auto;html=1;" edge="1" parent="1" source="VtTIXLVnnVCGsvNudqPp-1" target="zz3ASiDsGIC_eClKR1H7-1">
          <mxGeometry relative="1" as="geometry" />
        </mxCell>
        <mxCell id="VtTIXLVnnVCGsvNudqPp-1" value="entrer le titre" style="whiteSpace=wrap;html=1;" parent="1" vertex="1">
          <mxGeometry x="480" y="105" width="120" height="60" as="geometry" />
        </mxCell>
        <mxCell id="6C7n2z0U0bEOtGpcTK8q-1" value="" style="edgeStyle=none;orthogonalLoop=1;jettySize=auto;html=1;rounded=0;endArrow=none;endFill=0;strokeColor=#00FF00;" parent="1" edge="1">
          <mxGeometry width="80" relative="1" as="geometry">
            <mxPoint x="470" y="180" as="sourcePoint" />
            <mxPoint x="600" y="180" as="targetPoint" />
            <Array as="points" />
          </mxGeometry>
        </mxCell>
        <mxCell id="6C7n2z0U0bEOtGpcTK8q-2" value="" style="edgeStyle=none;orthogonalLoop=1;jettySize=auto;html=1;rounded=0;endArrow=none;endFill=0;strokeColor=#FF0000;" parent="1" edge="1">
          <mxGeometry width="80" relative="1" as="geometry">
            <mxPoint x="470" y="190" as="sourcePoint" />
            <mxPoint x="600" y="190" as="targetPoint" />
            <Array as="points" />
          </mxGeometry>
        </mxCell>
        <mxCell id="-IMuoYweMj3pbZHS0iCC-1" value="" style="edgeStyle=none;orthogonalLoop=1;jettySize=auto;html=1;rounded=0;endArrow=none;endFill=0;strokeColor=#FF0000;" parent="1" edge="1">
          <mxGeometry width="80" relative="1" as="geometry">
            <mxPoint x="10" y="240" as="sourcePoint" />
            <mxPoint x="40" y="240" as="targetPoint" />
            <Array as="points" />
          </mxGeometry>
        </mxCell>
        <mxCell id="-IMuoYweMj3pbZHS0iCC-2" value="" style="edgeStyle=none;orthogonalLoop=1;jettySize=auto;html=1;rounded=0;endArrow=none;endFill=0;strokeColor=#00FF00;" parent="1" edge="1">
          <mxGeometry width="80" relative="1" as="geometry">
            <mxPoint x="10" y="270" as="sourcePoint" />
            <mxPoint x="40" y="270" as="targetPoint" />
            <Array as="points" />
          </mxGeometry>
        </mxCell>
        <mxCell id="-IMuoYweMj3pbZHS0iCC-3" value="dernier paramètre" style="text;strokeColor=none;align=center;fillColor=none;html=1;verticalAlign=middle;whiteSpace=wrap;rounded=0;" parent="1" vertex="1">
          <mxGeometry x="50" y="220" width="110" height="30" as="geometry" />
        </mxCell>
        <mxCell id="-IMuoYweMj3pbZHS0iCC-4" value="affichage du bouton &quot;ok&quot;" style="text;strokeColor=none;align=center;fillColor=none;html=1;verticalAlign=middle;whiteSpace=wrap;rounded=0;" parent="1" vertex="1">
          <mxGeometry x="50" y="250" width="150" height="30" as="geometry" />
        </mxCell>
        <mxCell id="zz3ASiDsGIC_eClKR1H7-1" value="affiche le titre et sa source" style="whiteSpace=wrap;html=1;" vertex="1" parent="1">
          <mxGeometry x="480" y="230" width="120" height="60" as="geometry" />
        </mxCell>
      </root>
    </mxGraphModel>
  </diagram>
  <diagram name="infos" id="xtKc-qBo4c95hzdjGOa8">
    <mxGraphModel dx="1050" dy="557" grid="1" gridSize="10" guides="1" tooltips="1" connect="1" arrows="1" fold="1" page="1" pageScale="1" pageWidth="1169" pageHeight="1654" math="0" shadow="0">
      <root>
        <mxCell id="i3djYbcC6XxXz1J_DjPy-0" />
        <mxCell id="i3djYbcC6XxXz1J_DjPy-1" parent="i3djYbcC6XxXz1J_DjPy-0" />
        <mxCell id="i3djYbcC6XxXz1J_DjPy-2" value="" style="edgeStyle=orthogonalEdgeStyle;rounded=0;orthogonalLoop=1;jettySize=auto;html=1;" parent="i3djYbcC6XxXz1J_DjPy-1" source="i3djYbcC6XxXz1J_DjPy-3" target="i3djYbcC6XxXz1J_DjPy-6" edge="1">
          <mxGeometry relative="1" as="geometry" />
        </mxCell>
        <mxCell id="i3djYbcC6XxXz1J_DjPy-3" value="&lt;font style=&quot;vertical-align: inherit;&quot;&gt;&lt;font style=&quot;vertical-align: inherit;&quot;&gt;infos&lt;/font&gt;&lt;/font&gt;" style="whiteSpace=wrap;html=1;" parent="i3djYbcC6XxXz1J_DjPy-1" vertex="1">
          <mxGeometry x="470" y="10" width="120" height="60" as="geometry" />
        </mxCell>
        <mxCell id="i3djYbcC6XxXz1J_DjPy-4" value="1er paramètre" style="text;strokeColor=none;align=center;fillColor=none;html=1;verticalAlign=middle;whiteSpace=wrap;rounded=0;" parent="i3djYbcC6XxXz1J_DjPy-1" vertex="1">
          <mxGeometry x="10" y="25" width="90" height="30" as="geometry" />
        </mxCell>
        <mxCell id="i3djYbcC6XxXz1J_DjPy-5" value="2ème paramètre" style="text;strokeColor=none;align=center;fillColor=none;html=1;verticalAlign=middle;whiteSpace=wrap;rounded=0;" parent="i3djYbcC6XxXz1J_DjPy-1" vertex="1">
          <mxGeometry x="10" y="135" width="100" height="30" as="geometry" />
        </mxCell>
        <mxCell id="U5xYFEiH1hyz-a_DGF3X-1" value="" style="edgeStyle=orthogonalEdgeStyle;rounded=0;orthogonalLoop=1;jettySize=auto;html=1;" edge="1" parent="i3djYbcC6XxXz1J_DjPy-1" source="i3djYbcC6XxXz1J_DjPy-6" target="U5xYFEiH1hyz-a_DGF3X-0">
          <mxGeometry relative="1" as="geometry" />
        </mxCell>
        <mxCell id="i3djYbcC6XxXz1J_DjPy-6" value="entrer le titre" style="whiteSpace=wrap;html=1;" parent="i3djYbcC6XxXz1J_DjPy-1" vertex="1">
          <mxGeometry x="462.5" y="105" width="135" height="60" as="geometry" />
        </mxCell>
        <mxCell id="i3djYbcC6XxXz1J_DjPy-7" value="" style="edgeStyle=none;orthogonalLoop=1;jettySize=auto;html=1;rounded=0;endArrow=none;endFill=0;strokeColor=#00FF00;" parent="i3djYbcC6XxXz1J_DjPy-1" edge="1">
          <mxGeometry width="80" relative="1" as="geometry">
            <mxPoint x="470" y="180" as="sourcePoint" />
            <mxPoint x="600" y="180" as="targetPoint" />
            <Array as="points" />
          </mxGeometry>
        </mxCell>
        <mxCell id="i3djYbcC6XxXz1J_DjPy-8" value="" style="edgeStyle=none;orthogonalLoop=1;jettySize=auto;html=1;rounded=0;endArrow=none;endFill=0;strokeColor=#FF0000;" parent="i3djYbcC6XxXz1J_DjPy-1" edge="1">
          <mxGeometry width="80" relative="1" as="geometry">
            <mxPoint x="470" y="190" as="sourcePoint" />
            <mxPoint x="600" y="190" as="targetPoint" />
            <Array as="points" />
          </mxGeometry>
        </mxCell>
        <mxCell id="i3djYbcC6XxXz1J_DjPy-9" value="" style="edgeStyle=none;orthogonalLoop=1;jettySize=auto;html=1;rounded=0;endArrow=none;endFill=0;strokeColor=#FF0000;" parent="i3djYbcC6XxXz1J_DjPy-1" edge="1">
          <mxGeometry width="80" relative="1" as="geometry">
            <mxPoint x="10" y="240" as="sourcePoint" />
            <mxPoint x="40" y="240" as="targetPoint" />
            <Array as="points" />
          </mxGeometry>
        </mxCell>
        <mxCell id="i3djYbcC6XxXz1J_DjPy-10" value="" style="edgeStyle=none;orthogonalLoop=1;jettySize=auto;html=1;rounded=0;endArrow=none;endFill=0;strokeColor=#00FF00;" parent="i3djYbcC6XxXz1J_DjPy-1" edge="1">
          <mxGeometry width="80" relative="1" as="geometry">
            <mxPoint x="10" y="270" as="sourcePoint" />
            <mxPoint x="40" y="270" as="targetPoint" />
            <Array as="points" />
          </mxGeometry>
        </mxCell>
        <mxCell id="i3djYbcC6XxXz1J_DjPy-11" value="dernier paramètre" style="text;strokeColor=none;align=center;fillColor=none;html=1;verticalAlign=middle;whiteSpace=wrap;rounded=0;" parent="i3djYbcC6XxXz1J_DjPy-1" vertex="1">
          <mxGeometry x="50" y="220" width="110" height="30" as="geometry" />
        </mxCell>
        <mxCell id="i3djYbcC6XxXz1J_DjPy-12" value="affichage du bouton &quot;ok&quot;" style="text;strokeColor=none;align=center;fillColor=none;html=1;verticalAlign=middle;whiteSpace=wrap;rounded=0;" parent="i3djYbcC6XxXz1J_DjPy-1" vertex="1">
          <mxGeometry x="50" y="250" width="150" height="30" as="geometry" />
        </mxCell>
        <mxCell id="U5xYFEiH1hyz-a_DGF3X-0" value="affiche toutes les infos (src, pronstar, etc.)" style="whiteSpace=wrap;html=1;" vertex="1" parent="i3djYbcC6XxXz1J_DjPy-1">
          <mxGeometry x="470" y="245" width="120" height="60" as="geometry" />
        </mxCell>
      </root>
    </mxGraphModel>
  </diagram>
  <diagram id="EG7KVl_pdDOFHSH9LQ4L" name="pornstars">
    <mxGraphModel dx="1050" dy="557" grid="1" gridSize="10" guides="1" tooltips="1" connect="1" arrows="1" fold="1" page="1" pageScale="1" pageWidth="1169" pageHeight="1654" math="0" shadow="0">
      <root>
        <mxCell id="0" />
        <mxCell id="1" parent="0" />
        <mxCell id="P0hrUbV7NrN2x1DYaP06-8" value="" style="edgeStyle=orthogonalEdgeStyle;rounded=0;orthogonalLoop=1;jettySize=auto;html=1;" parent="1" source="L9Ykr6XPltug8trGlz2--32" target="P0hrUbV7NrN2x1DYaP06-4" edge="1">
          <mxGeometry relative="1" as="geometry">
            <Array as="points">
              <mxPoint x="570" y="89" />
              <mxPoint x="650" y="89" />
            </Array>
          </mxGeometry>
        </mxCell>
        <mxCell id="L9Ykr6XPltug8trGlz2--32" value="pornstars" style="rounded=0;whiteSpace=wrap;html=1;" parent="1" vertex="1">
          <mxGeometry x="510" y="9" width="120" height="60" as="geometry" />
        </mxCell>
        <mxCell id="P0hrUbV7NrN2x1DYaP06-1" value="&lt;font style=&quot;vertical-align: inherit;&quot;&gt;&lt;font style=&quot;vertical-align: inherit;&quot;&gt;views&lt;/font&gt;&lt;/font&gt;" style="whiteSpace=wrap;html=1;" parent="1" vertex="1">
          <mxGeometry x="170" y="169" width="120" height="60" as="geometry" />
        </mxCell>
        <mxCell id="P0hrUbV7NrN2x1DYaP06-16" value="" style="edgeStyle=orthogonalEdgeStyle;rounded=0;orthogonalLoop=1;jettySize=auto;html=1;" parent="1" source="P0hrUbV7NrN2x1DYaP06-2" target="P0hrUbV7NrN2x1DYaP06-15" edge="1">
          <mxGeometry relative="1" as="geometry" />
        </mxCell>
        <mxCell id="P0hrUbV7NrN2x1DYaP06-2" value="&lt;font style=&quot;vertical-align: inherit;&quot;&gt;&lt;font style=&quot;vertical-align: inherit;&quot;&gt;likes&lt;/font&gt;&lt;/font&gt;" style="whiteSpace=wrap;html=1;" parent="1" vertex="1">
          <mxGeometry x="310" y="169" width="120" height="60" as="geometry" />
        </mxCell>
        <mxCell id="P0hrUbV7NrN2x1DYaP06-3" value="&lt;font style=&quot;vertical-align: inherit;&quot;&gt;&lt;font style=&quot;vertical-align: inherit;&quot;&gt;dislikes&lt;/font&gt;&lt;/font&gt;" style="whiteSpace=wrap;html=1;" parent="1" vertex="1">
          <mxGeometry x="450" y="169" width="120" height="60" as="geometry" />
        </mxCell>
        <mxCell id="P0hrUbV7NrN2x1DYaP06-4" value="&lt;font style=&quot;vertical-align: inherit;&quot;&gt;&lt;font style=&quot;vertical-align: inherit;&quot;&gt;times&lt;/font&gt;&lt;/font&gt;" style="whiteSpace=wrap;html=1;" parent="1" vertex="1">
          <mxGeometry x="590" y="169" width="120" height="60" as="geometry" />
        </mxCell>
        <mxCell id="P0hrUbV7NrN2x1DYaP06-22" value="" style="edgeStyle=orthogonalEdgeStyle;rounded=0;orthogonalLoop=1;jettySize=auto;html=1;" parent="1" source="P0hrUbV7NrN2x1DYaP06-6" target="P0hrUbV7NrN2x1DYaP06-21" edge="1">
          <mxGeometry relative="1" as="geometry" />
        </mxCell>
        <mxCell id="P0hrUbV7NrN2x1DYaP06-6" value="categories" style="whiteSpace=wrap;html=1;" parent="1" vertex="1">
          <mxGeometry x="730" y="169" width="120" height="60" as="geometry" />
        </mxCell>
        <mxCell id="P0hrUbV7NrN2x1DYaP06-23" value="" style="edgeStyle=orthogonalEdgeStyle;rounded=0;orthogonalLoop=1;jettySize=auto;html=1;" parent="1" source="P0hrUbV7NrN2x1DYaP06-7" target="P0hrUbV7NrN2x1DYaP06-21" edge="1">
          <mxGeometry relative="1" as="geometry" />
        </mxCell>
        <mxCell id="P0hrUbV7NrN2x1DYaP06-7" value="tags" style="whiteSpace=wrap;html=1;" parent="1" vertex="1">
          <mxGeometry x="870" y="169" width="120" height="60" as="geometry" />
        </mxCell>
        <mxCell id="P0hrUbV7NrN2x1DYaP06-9" value="" style="edgeStyle=orthogonalEdgeStyle;rounded=0;orthogonalLoop=1;jettySize=auto;html=1;" parent="1" edge="1">
          <mxGeometry relative="1" as="geometry">
            <mxPoint x="240" y="89" as="sourcePoint" />
            <mxPoint x="366" y="169" as="targetPoint" />
          </mxGeometry>
        </mxCell>
        <mxCell id="P0hrUbV7NrN2x1DYaP06-11" value="" style="edgeStyle=orthogonalEdgeStyle;rounded=0;orthogonalLoop=1;jettySize=auto;html=1;" parent="1" edge="1">
          <mxGeometry relative="1" as="geometry">
            <mxPoint x="520" y="89" as="sourcePoint" />
            <mxPoint x="236" y="169" as="targetPoint" />
          </mxGeometry>
        </mxCell>
        <mxCell id="P0hrUbV7NrN2x1DYaP06-12" value="" style="edgeStyle=orthogonalEdgeStyle;rounded=0;orthogonalLoop=1;jettySize=auto;html=1;" parent="1" edge="1">
          <mxGeometry relative="1" as="geometry">
            <mxPoint x="390" y="89" as="sourcePoint" />
            <mxPoint x="516" y="169" as="targetPoint" />
          </mxGeometry>
        </mxCell>
        <mxCell id="P0hrUbV7NrN2x1DYaP06-13" value="" style="edgeStyle=orthogonalEdgeStyle;rounded=0;orthogonalLoop=1;jettySize=auto;html=1;" parent="1" edge="1">
          <mxGeometry relative="1" as="geometry">
            <mxPoint x="520" y="89" as="sourcePoint" />
            <mxPoint x="926" y="169" as="targetPoint" />
          </mxGeometry>
        </mxCell>
        <mxCell id="P0hrUbV7NrN2x1DYaP06-14" value="" style="edgeStyle=orthogonalEdgeStyle;rounded=0;orthogonalLoop=1;jettySize=auto;html=1;" parent="1" edge="1">
          <mxGeometry relative="1" as="geometry">
            <mxPoint x="660" y="89" as="sourcePoint" />
            <mxPoint x="786" y="169" as="targetPoint" />
          </mxGeometry>
        </mxCell>
        <mxCell id="SETI9YbdS7R8MaT9y371-1" style="edgeStyle=orthogonalEdgeStyle;rounded=0;orthogonalLoop=1;jettySize=auto;html=1;exitX=0.5;exitY=1;exitDx=0;exitDy=0;entryX=0.5;entryY=0;entryDx=0;entryDy=0;" edge="1" parent="1" source="P0hrUbV7NrN2x1DYaP06-15" target="P0hrUbV7NrN2x1DYaP06-24">
          <mxGeometry relative="1" as="geometry">
            <Array as="points">
              <mxPoint x="440" y="449" />
              <mxPoint x="630" y="449" />
            </Array>
          </mxGeometry>
        </mxCell>
        <mxCell id="P0hrUbV7NrN2x1DYaP06-15" value="entrez nombre pornstars" style="whiteSpace=wrap;html=1;" parent="1" vertex="1">
          <mxGeometry x="380" y="279" width="120" height="60" as="geometry" />
        </mxCell>
        <mxCell id="P0hrUbV7NrN2x1DYaP06-17" value="" style="edgeStyle=orthogonalEdgeStyle;rounded=0;orthogonalLoop=1;jettySize=auto;html=1;exitX=0.5;exitY=1;exitDx=0;exitDy=0;entryX=0.5;entryY=0;entryDx=0;entryDy=0;" parent="1" source="P0hrUbV7NrN2x1DYaP06-1" target="P0hrUbV7NrN2x1DYaP06-15" edge="1">
          <mxGeometry relative="1" as="geometry">
            <mxPoint x="170" y="269" as="sourcePoint" />
            <mxPoint x="240" y="319" as="targetPoint" />
          </mxGeometry>
        </mxCell>
        <mxCell id="P0hrUbV7NrN2x1DYaP06-19" value="" style="edgeStyle=orthogonalEdgeStyle;rounded=0;orthogonalLoop=1;jettySize=auto;html=1;exitX=0.5;exitY=1;exitDx=0;exitDy=0;" parent="1" source="P0hrUbV7NrN2x1DYaP06-4" edge="1">
          <mxGeometry relative="1" as="geometry">
            <mxPoint x="640" y="259" as="sourcePoint" />
            <mxPoint x="440" y="279" as="targetPoint" />
          </mxGeometry>
        </mxCell>
        <mxCell id="P0hrUbV7NrN2x1DYaP06-20" value="" style="edgeStyle=orthogonalEdgeStyle;rounded=0;orthogonalLoop=1;jettySize=auto;html=1;exitX=0.5;exitY=1;exitDx=0;exitDy=0;" parent="1" source="P0hrUbV7NrN2x1DYaP06-3" edge="1">
          <mxGeometry relative="1" as="geometry">
            <mxPoint x="370" y="229" as="sourcePoint" />
            <mxPoint x="440" y="279" as="targetPoint" />
          </mxGeometry>
        </mxCell>
        <mxCell id="P0hrUbV7NrN2x1DYaP06-26" value="" style="edgeStyle=orthogonalEdgeStyle;rounded=0;orthogonalLoop=1;jettySize=auto;html=1;" parent="1" source="P0hrUbV7NrN2x1DYaP06-21" target="P0hrUbV7NrN2x1DYaP06-25" edge="1">
          <mxGeometry relative="1" as="geometry" />
        </mxCell>
        <mxCell id="P0hrUbV7NrN2x1DYaP06-21" value="entrez nombre pornstars" style="whiteSpace=wrap;html=1;" parent="1" vertex="1">
          <mxGeometry x="800" y="279" width="120" height="60" as="geometry" />
        </mxCell>
        <mxCell id="P0hrUbV7NrN2x1DYaP06-24" value="top pornstars" style="whiteSpace=wrap;html=1;" parent="1" vertex="1">
          <mxGeometry x="570" y="469" width="120" height="60" as="geometry" />
        </mxCell>
        <mxCell id="P0hrUbV7NrN2x1DYaP06-25" value="entrez un categories" style="whiteSpace=wrap;html=1;" parent="1" vertex="1">
          <mxGeometry x="800" y="369" width="120" height="60" as="geometry" />
        </mxCell>
        <mxCell id="P0hrUbV7NrN2x1DYaP06-27" value="" style="edgeStyle=orthogonalEdgeStyle;rounded=0;orthogonalLoop=1;jettySize=auto;html=1;entryX=0.5;entryY=0;entryDx=0;entryDy=0;exitX=0.5;exitY=1;exitDx=0;exitDy=0;" parent="1" source="P0hrUbV7NrN2x1DYaP06-25" target="P0hrUbV7NrN2x1DYaP06-24" edge="1">
          <mxGeometry relative="1" as="geometry">
            <mxPoint x="860" y="449" as="sourcePoint" />
            <mxPoint x="634" y="454" as="targetPoint" />
          </mxGeometry>
        </mxCell>
        <mxCell id="SETI9YbdS7R8MaT9y371-2" value="1er paramètre" style="text;strokeColor=none;align=center;fillColor=none;html=1;verticalAlign=middle;whiteSpace=wrap;rounded=0;" vertex="1" parent="1">
          <mxGeometry x="10" y="40" width="90" height="30" as="geometry" />
        </mxCell>
        <mxCell id="SETI9YbdS7R8MaT9y371-3" value="2ème paramètre" style="text;strokeColor=none;align=center;fillColor=none;html=1;verticalAlign=middle;whiteSpace=wrap;rounded=0;" vertex="1" parent="1">
          <mxGeometry x="10" y="175" width="100" height="30" as="geometry" />
        </mxCell>
        <mxCell id="SETI9YbdS7R8MaT9y371-4" value="3ème paramètre" style="text;strokeColor=none;align=center;fillColor=none;html=1;verticalAlign=middle;whiteSpace=wrap;rounded=0;" vertex="1" parent="1">
          <mxGeometry x="10" y="305" width="100" height="30" as="geometry" />
        </mxCell>
        <mxCell id="SETI9YbdS7R8MaT9y371-5" value="4ème paramètre" style="text;strokeColor=none;align=center;fillColor=none;html=1;verticalAlign=middle;whiteSpace=wrap;rounded=0;" vertex="1" parent="1">
          <mxGeometry x="10" y="415" width="100" height="30" as="geometry" />
        </mxCell>
        <mxCell id="SETI9YbdS7R8MaT9y371-6" value="5ème paramètre" style="text;strokeColor=none;align=center;fillColor=none;html=1;verticalAlign=middle;whiteSpace=wrap;rounded=0;" vertex="1" parent="1">
          <mxGeometry x="10" y="525" width="100" height="30" as="geometry" />
        </mxCell>
      </root>
    </mxGraphModel>
  </diagram>
  <diagram id="jvAy5UTqFWkR2G1klgsr" name="evolution">
    <mxGraphModel dx="1050" dy="557" grid="1" gridSize="10" guides="1" tooltips="1" connect="1" arrows="1" fold="1" page="1" pageScale="1" pageWidth="1169" pageHeight="1654" math="0" shadow="0">
      <root>
        <mxCell id="0" />
        <mxCell id="1" parent="0" />
        <mxCell id="7bFgkPGd6RhOAK4jt3Uh-1" value="1er paramètre" style="text;strokeColor=none;align=center;fillColor=none;html=1;verticalAlign=middle;whiteSpace=wrap;rounded=0;" vertex="1" parent="1">
          <mxGeometry x="10" y="40" width="90" height="30" as="geometry" />
        </mxCell>
        <mxCell id="7bFgkPGd6RhOAK4jt3Uh-2" value="2ème paramètre" style="text;strokeColor=none;align=center;fillColor=none;html=1;verticalAlign=middle;whiteSpace=wrap;rounded=0;" vertex="1" parent="1">
          <mxGeometry x="10" y="175" width="100" height="30" as="geometry" />
        </mxCell>
        <mxCell id="7bFgkPGd6RhOAK4jt3Uh-3" value="3ème paramètre" style="text;strokeColor=none;align=center;fillColor=none;html=1;verticalAlign=middle;whiteSpace=wrap;rounded=0;" vertex="1" parent="1">
          <mxGeometry x="10" y="305" width="100" height="30" as="geometry" />
        </mxCell>
        <mxCell id="7bFgkPGd6RhOAK4jt3Uh-4" value="4ème paramètre" style="text;strokeColor=none;align=center;fillColor=none;html=1;verticalAlign=middle;whiteSpace=wrap;rounded=0;" vertex="1" parent="1">
          <mxGeometry x="10" y="415" width="100" height="30" as="geometry" />
        </mxCell>
        <mxCell id="7bFgkPGd6RhOAK4jt3Uh-5" value="5ème paramètre" style="text;strokeColor=none;align=center;fillColor=none;html=1;verticalAlign=middle;whiteSpace=wrap;rounded=0;" vertex="1" parent="1">
          <mxGeometry x="10" y="525" width="100" height="30" as="geometry" />
        </mxCell>
        <mxCell id="URQf1gIVA9QIDuKjYTCF-5" style="edgeStyle=orthogonalEdgeStyle;rounded=0;orthogonalLoop=1;jettySize=auto;html=1;exitX=0.5;exitY=1;exitDx=0;exitDy=0;" edge="1" parent="1" source="URQf1gIVA9QIDuKjYTCF-1" target="URQf1gIVA9QIDuKjYTCF-2">
          <mxGeometry relative="1" as="geometry" />
        </mxCell>
        <mxCell id="URQf1gIVA9QIDuKjYTCF-6" style="edgeStyle=orthogonalEdgeStyle;rounded=0;orthogonalLoop=1;jettySize=auto;html=1;exitX=0.5;exitY=1;exitDx=0;exitDy=0;" edge="1" parent="1" source="URQf1gIVA9QIDuKjYTCF-1" target="URQf1gIVA9QIDuKjYTCF-3">
          <mxGeometry relative="1" as="geometry" />
        </mxCell>
        <mxCell id="URQf1gIVA9QIDuKjYTCF-1" value="evolution" style="rounded=0;whiteSpace=wrap;html=1;" vertex="1" parent="1">
          <mxGeometry x="510" y="9" width="120" height="60" as="geometry" />
        </mxCell>
        <mxCell id="URQf1gIVA9QIDuKjYTCF-12" style="edgeStyle=orthogonalEdgeStyle;rounded=0;orthogonalLoop=1;jettySize=auto;html=1;exitX=0.5;exitY=1;exitDx=0;exitDy=0;entryX=0.5;entryY=0;entryDx=0;entryDy=0;" edge="1" parent="1" source="URQf1gIVA9QIDuKjYTCF-2" target="URQf1gIVA9QIDuKjYTCF-8">
          <mxGeometry relative="1" as="geometry" />
        </mxCell>
        <mxCell id="URQf1gIVA9QIDuKjYTCF-17" style="edgeStyle=orthogonalEdgeStyle;rounded=0;orthogonalLoop=1;jettySize=auto;html=1;exitX=0.5;exitY=1;exitDx=0;exitDy=0;entryX=0.5;entryY=0;entryDx=0;entryDy=0;" edge="1" parent="1" source="URQf1gIVA9QIDuKjYTCF-2" target="URQf1gIVA9QIDuKjYTCF-7">
          <mxGeometry relative="1" as="geometry" />
        </mxCell>
        <mxCell id="URQf1gIVA9QIDuKjYTCF-20" style="edgeStyle=orthogonalEdgeStyle;rounded=0;orthogonalLoop=1;jettySize=auto;html=1;exitX=0.5;exitY=1;exitDx=0;exitDy=0;" edge="1" parent="1" source="URQf1gIVA9QIDuKjYTCF-2" target="URQf1gIVA9QIDuKjYTCF-19">
          <mxGeometry relative="1" as="geometry" />
        </mxCell>
        <mxCell id="URQf1gIVA9QIDuKjYTCF-2" value="year" style="rounded=0;whiteSpace=wrap;html=1;" vertex="1" parent="1">
          <mxGeometry x="340" y="160" width="120" height="60" as="geometry" />
        </mxCell>
        <mxCell id="Iw-yXuGGmkW13xBqHYnU-14" value="" style="edgeStyle=orthogonalEdgeStyle;rounded=0;orthogonalLoop=1;jettySize=auto;html=1;" edge="1" parent="1" source="URQf1gIVA9QIDuKjYTCF-3" target="Iw-yXuGGmkW13xBqHYnU-13">
          <mxGeometry relative="1" as="geometry" />
        </mxCell>
        <mxCell id="URQf1gIVA9QIDuKjYTCF-3" value="month" style="rounded=0;whiteSpace=wrap;html=1;" vertex="1" parent="1">
          <mxGeometry x="1040" y="160" width="120" height="60" as="geometry" />
        </mxCell>
        <mxCell id="URQf1gIVA9QIDuKjYTCF-29" style="edgeStyle=orthogonalEdgeStyle;rounded=0;orthogonalLoop=1;jettySize=auto;html=1;exitX=0.5;exitY=1;exitDx=0;exitDy=0;entryX=0.5;entryY=0;entryDx=0;entryDy=0;" edge="1" parent="1" source="URQf1gIVA9QIDuKjYTCF-7" target="URQf1gIVA9QIDuKjYTCF-24">
          <mxGeometry relative="1" as="geometry" />
        </mxCell>
        <mxCell id="URQf1gIVA9QIDuKjYTCF-7" value="all" style="rounded=0;whiteSpace=wrap;html=1;" vertex="1" parent="1">
          <mxGeometry x="840" y="300" width="120" height="60" as="geometry" />
        </mxCell>
        <mxCell id="URQf1gIVA9QIDuKjYTCF-26" value="" style="edgeStyle=orthogonalEdgeStyle;rounded=0;orthogonalLoop=1;jettySize=auto;html=1;" edge="1" parent="1" source="URQf1gIVA9QIDuKjYTCF-8" target="URQf1gIVA9QIDuKjYTCF-23">
          <mxGeometry relative="1" as="geometry" />
        </mxCell>
        <mxCell id="URQf1gIVA9QIDuKjYTCF-27" style="edgeStyle=orthogonalEdgeStyle;rounded=0;orthogonalLoop=1;jettySize=auto;html=1;exitX=0.5;exitY=1;exitDx=0;exitDy=0;entryX=0.5;entryY=0;entryDx=0;entryDy=0;" edge="1" parent="1" source="URQf1gIVA9QIDuKjYTCF-8" target="URQf1gIVA9QIDuKjYTCF-24">
          <mxGeometry relative="1" as="geometry" />
        </mxCell>
        <mxCell id="URQf1gIVA9QIDuKjYTCF-28" style="edgeStyle=orthogonalEdgeStyle;rounded=0;orthogonalLoop=1;jettySize=auto;html=1;exitX=0.5;exitY=1;exitDx=0;exitDy=0;entryX=0.5;entryY=0;entryDx=0;entryDy=0;" edge="1" parent="1" source="URQf1gIVA9QIDuKjYTCF-8" target="URQf1gIVA9QIDuKjYTCF-25">
          <mxGeometry relative="1" as="geometry" />
        </mxCell>
        <mxCell id="URQf1gIVA9QIDuKjYTCF-8" value="n année" style="rounded=0;whiteSpace=wrap;html=1;" vertex="1" parent="1">
          <mxGeometry x="670" y="300" width="120" height="60" as="geometry" />
        </mxCell>
        <mxCell id="URQf1gIVA9QIDuKjYTCF-22" value="" style="edgeStyle=orthogonalEdgeStyle;rounded=0;orthogonalLoop=1;jettySize=auto;html=1;" edge="1" parent="1" source="URQf1gIVA9QIDuKjYTCF-19" target="URQf1gIVA9QIDuKjYTCF-21">
          <mxGeometry relative="1" as="geometry" />
        </mxCell>
        <mxCell id="URQf1gIVA9QIDuKjYTCF-19" value="date de début&lt;div&gt;aaaa&lt;/div&gt;&lt;div&gt;mm/aaaa&lt;/div&gt;&lt;div&gt;jj/mm/aaaa&lt;/div&gt;" style="rounded=0;whiteSpace=wrap;html=1;" vertex="1" parent="1">
          <mxGeometry x="170" y="300" width="120" height="60" as="geometry" />
        </mxCell>
        <mxCell id="URQf1gIVA9QIDuKjYTCF-33" value="" style="edgeStyle=orthogonalEdgeStyle;rounded=0;orthogonalLoop=1;jettySize=auto;html=1;" edge="1" parent="1" source="URQf1gIVA9QIDuKjYTCF-21" target="URQf1gIVA9QIDuKjYTCF-30">
          <mxGeometry relative="1" as="geometry" />
        </mxCell>
        <mxCell id="URQf1gIVA9QIDuKjYTCF-34" style="edgeStyle=orthogonalEdgeStyle;rounded=0;orthogonalLoop=1;jettySize=auto;html=1;exitX=0.5;exitY=1;exitDx=0;exitDy=0;entryX=0.5;entryY=0;entryDx=0;entryDy=0;" edge="1" parent="1" source="URQf1gIVA9QIDuKjYTCF-21" target="URQf1gIVA9QIDuKjYTCF-31">
          <mxGeometry relative="1" as="geometry" />
        </mxCell>
        <mxCell id="URQf1gIVA9QIDuKjYTCF-35" style="edgeStyle=orthogonalEdgeStyle;rounded=0;orthogonalLoop=1;jettySize=auto;html=1;exitX=0.5;exitY=1;exitDx=0;exitDy=0;" edge="1" parent="1" source="URQf1gIVA9QIDuKjYTCF-21" target="URQf1gIVA9QIDuKjYTCF-32">
          <mxGeometry relative="1" as="geometry" />
        </mxCell>
        <mxCell id="URQf1gIVA9QIDuKjYTCF-21" value="date de fin&lt;div&gt;aaaa&lt;/div&gt;&lt;div&gt;mm/aaaa&lt;/div&gt;&lt;div&gt;jj/mm/aaaa&lt;/div&gt;" style="rounded=0;whiteSpace=wrap;html=1;" vertex="1" parent="1">
          <mxGeometry x="170" y="400" width="120" height="60" as="geometry" />
        </mxCell>
        <mxCell id="Iw-yXuGGmkW13xBqHYnU-1" value="" style="edgeStyle=orthogonalEdgeStyle;rounded=0;orthogonalLoop=1;jettySize=auto;html=1;" edge="1" parent="1" source="URQf1gIVA9QIDuKjYTCF-23" target="tldF8gThEFyPeWvGJDGv-1">
          <mxGeometry relative="1" as="geometry" />
        </mxCell>
        <mxCell id="URQf1gIVA9QIDuKjYTCF-23" value="categories" style="rounded=0;whiteSpace=wrap;html=1;" vertex="1" parent="1">
          <mxGeometry x="670" y="400" width="120" height="60" as="geometry" />
        </mxCell>
        <mxCell id="Iw-yXuGGmkW13xBqHYnU-4" value="" style="edgeStyle=orthogonalEdgeStyle;rounded=0;orthogonalLoop=1;jettySize=auto;html=1;" edge="1" parent="1" source="URQf1gIVA9QIDuKjYTCF-24" target="Iw-yXuGGmkW13xBqHYnU-2">
          <mxGeometry relative="1" as="geometry" />
        </mxCell>
        <mxCell id="URQf1gIVA9QIDuKjYTCF-24" value="tags" style="rounded=0;whiteSpace=wrap;html=1;" vertex="1" parent="1">
          <mxGeometry x="840" y="400" width="120" height="60" as="geometry" />
        </mxCell>
        <mxCell id="Iw-yXuGGmkW13xBqHYnU-5" value="" style="edgeStyle=orthogonalEdgeStyle;rounded=0;orthogonalLoop=1;jettySize=auto;html=1;" edge="1" parent="1" source="URQf1gIVA9QIDuKjYTCF-25" target="Iw-yXuGGmkW13xBqHYnU-3">
          <mxGeometry relative="1" as="geometry" />
        </mxCell>
        <mxCell id="URQf1gIVA9QIDuKjYTCF-25" value="pornstars" style="rounded=0;whiteSpace=wrap;html=1;" vertex="1" parent="1">
          <mxGeometry x="1010" y="400" width="120" height="60" as="geometry" />
        </mxCell>
        <mxCell id="Iw-yXuGGmkW13xBqHYnU-9" value="" style="edgeStyle=orthogonalEdgeStyle;rounded=0;orthogonalLoop=1;jettySize=auto;html=1;" edge="1" parent="1" source="URQf1gIVA9QIDuKjYTCF-30" target="Iw-yXuGGmkW13xBqHYnU-6">
          <mxGeometry relative="1" as="geometry" />
        </mxCell>
        <mxCell id="URQf1gIVA9QIDuKjYTCF-30" value="categories" style="rounded=0;whiteSpace=wrap;html=1;" vertex="1" parent="1">
          <mxGeometry x="170" y="510" width="120" height="60" as="geometry" />
        </mxCell>
        <mxCell id="Iw-yXuGGmkW13xBqHYnU-10" value="" style="edgeStyle=orthogonalEdgeStyle;rounded=0;orthogonalLoop=1;jettySize=auto;html=1;" edge="1" parent="1" source="URQf1gIVA9QIDuKjYTCF-31" target="Iw-yXuGGmkW13xBqHYnU-7">
          <mxGeometry relative="1" as="geometry" />
        </mxCell>
        <mxCell id="URQf1gIVA9QIDuKjYTCF-31" value="tags" style="rounded=0;whiteSpace=wrap;html=1;" vertex="1" parent="1">
          <mxGeometry x="340" y="510" width="120" height="60" as="geometry" />
        </mxCell>
        <mxCell id="Iw-yXuGGmkW13xBqHYnU-11" value="" style="edgeStyle=orthogonalEdgeStyle;rounded=0;orthogonalLoop=1;jettySize=auto;html=1;" edge="1" parent="1" source="URQf1gIVA9QIDuKjYTCF-32" target="Iw-yXuGGmkW13xBqHYnU-8">
          <mxGeometry relative="1" as="geometry" />
        </mxCell>
        <mxCell id="URQf1gIVA9QIDuKjYTCF-32" value="pornstars" style="rounded=0;whiteSpace=wrap;html=1;" vertex="1" parent="1">
          <mxGeometry x="510" y="510" width="120" height="60" as="geometry" />
        </mxCell>
        <mxCell id="tldF8gThEFyPeWvGJDGv-1" value="entrez nombre de catégories" style="rounded=0;whiteSpace=wrap;html=1;" vertex="1" parent="1">
          <mxGeometry x="670" y="510" width="120" height="60" as="geometry" />
        </mxCell>
        <mxCell id="Iw-yXuGGmkW13xBqHYnU-2" value="entrez nombre de tags" style="rounded=0;whiteSpace=wrap;html=1;" vertex="1" parent="1">
          <mxGeometry x="840" y="510" width="120" height="60" as="geometry" />
        </mxCell>
        <mxCell id="Iw-yXuGGmkW13xBqHYnU-3" value="entrez nombre de pornstars" style="rounded=0;whiteSpace=wrap;html=1;" vertex="1" parent="1">
          <mxGeometry x="1010" y="510" width="120" height="60" as="geometry" />
        </mxCell>
        <mxCell id="Iw-yXuGGmkW13xBqHYnU-6" value="entrez nombre de catégories" style="rounded=0;whiteSpace=wrap;html=1;" vertex="1" parent="1">
          <mxGeometry x="170" y="630" width="120" height="60" as="geometry" />
        </mxCell>
        <mxCell id="Iw-yXuGGmkW13xBqHYnU-7" value="entrez nombre de tags" style="rounded=0;whiteSpace=wrap;html=1;" vertex="1" parent="1">
          <mxGeometry x="340" y="630" width="120" height="60" as="geometry" />
        </mxCell>
        <mxCell id="Iw-yXuGGmkW13xBqHYnU-8" value="entrez nombre de pornstars" style="rounded=0;whiteSpace=wrap;html=1;" vertex="1" parent="1">
          <mxGeometry x="510" y="630" width="120" height="60" as="geometry" />
        </mxCell>
        <mxCell id="Iw-yXuGGmkW13xBqHYnU-12" value="6&lt;span style=&quot;background-color: initial;&quot;&gt;ème paramètre&lt;/span&gt;" style="text;strokeColor=none;align=center;fillColor=none;html=1;verticalAlign=middle;whiteSpace=wrap;rounded=0;" vertex="1" parent="1">
          <mxGeometry x="10" y="645" width="100" height="30" as="geometry" />
        </mxCell>
        <mxCell id="Iw-yXuGGmkW13xBqHYnU-13" value="all" style="rounded=0;whiteSpace=wrap;html=1;" vertex="1" parent="1">
          <mxGeometry x="1040" y="300" width="120" height="60" as="geometry" />
        </mxCell>
      </root>
    </mxGraphModel>
  </diagram>
</mxfile>
